<svg width="456" height="166" viewBox="0 0 456 166" fill="none" xmlns="http://www.w3.org/2000/svg">
<g filter="url(#filter0_d_29_478)">
<path d="M94.16 22.44C95.14 15.3 88.56 0.459993 64.9 0.879996C39.56 0.599991 14.64 16.98 7.08 42.46C4.98 49.18 4 55.34 4 61.08C4 79.14 14.64 89.36 28.78 89.36C29.62 89.36 31.02 89.22 33.12 89.08C41.94 87.68 50.34 83.06 58.32 75.36L53 93.42L50.34 102.52C48.52 108.82 47.12 113.58 45.86 116.8C44.74 120.16 43.2 123.1 41.38 125.62C39.56 128.28 37.18 130.24 34.38 131.64C32.56 132.48 30.74 132.9 28.92 132.9C24.44 132.9 20.94 130.38 20.94 127.02C20.94 124.36 22.48 121.98 25.7 120.02C30.74 116.8 33.68 113.86 34.94 109.24C35.36 107.56 35.5 106.44 35.5 105.74C35.5 100.28 31.72 96.64 25.98 96.64C18.56 96.64 11.84 101.96 9.04 111.9C8.48 114 8.2 116.1 8.2 117.92C8.2 128.56 16.32 136.4 29.06 136.4C35.36 136.4 41.1 135.42 46.28 133.46C51.6 131.5 56.78 127.3 61.68 121C66.72 114.7 71.06 105.6 74.56 93.42L85.34 56.74H63.78L60.98 66.26C53.14 75.64 45.44 80.12 38.72 80.12C30.74 80.12 25.28 73.12 25.28 61.78C25.28 59.96 25.42 58 25.7 55.9C26.26 52.4 27.24 48.34 28.64 44C36.48 21.18 51.88 6.06 67.42 6.06C75.68 6.06 78.62 9.28 78.62 11.52C78.62 13.76 77.78 15.58 76.1 17.12C73.44 19.36 71.62 22.02 70.64 25.1C70.22 26.08 70.08 27.2 70.08 28.46C70.08 33.36 73.58 36.72 78.76 36.72C85.34 36.72 91.92 31.4 93.74 25.1C94.02 24.12 94.16 23.14 94.16 22.44ZM142.084 114C148.104 114 153.844 112.6 159.024 109.66C164.204 106.72 168.124 103.64 170.644 100.42C173.304 97.2 174.704 95.38 174.984 95.1L172.884 92.44L170.084 95.24C163.924 101.54 159.304 105.46 153.844 105.46C151.184 105.46 149.924 103.92 149.924 100.84C149.924 99.16 150.204 97.62 150.624 96.22L158.604 69.34C159.584 65.98 160.004 62.9 160.004 60.1C160.004 48.34 151.184 44 136.484 44C108.764 43.16 86.9244 72.28 87.4844 95.52C87.4844 100.28 88.8844 104.62 91.5444 108.4C94.2044 112.18 98.4044 114 104.144 114C113.524 114 122.344 110.08 129.204 102.94C129.624 110.08 133.264 114 142.084 114ZM136.484 48.9C139.144 48.9 140.964 49.88 142.224 51.98L132.564 84.46C131.304 88.8 130.464 92.58 129.764 95.66C124.584 102.24 120.104 105.46 116.044 105.46C110.864 105.46 108.484 99.72 108.484 94.12C107.784 72 126.824 48.2 136.484 48.9ZM188.875 100.84C188.875 99.16 189.155 97.62 189.575 96.22L217.855 0.879996H196.295L171.515 84.46C169.275 92.02 168.155 97.76 168.155 101.68C168.155 109.52 171.655 114 181.035 114C192.935 114 201.475 110.92 206.375 104.76C211.275 98.6 213.935 95.38 214.215 95.1L212.115 92.44L209.455 94.96C203.295 101.26 198.395 105.46 192.795 105.46C190.135 105.46 188.875 103.92 188.875 100.84ZM228.089 100.84C228.089 99.16 228.369 97.62 228.789 96.22L257.069 0.879996H235.509L210.729 84.46C208.489 92.02 207.369 97.76 207.369 101.68C207.369 109.52 210.869 114 220.249 114C232.149 114 240.689 110.92 245.589 104.76C250.489 98.6 253.149 95.38 253.429 95.1L251.329 92.44L248.669 94.96C242.509 101.26 237.609 105.46 232.009 105.46C229.349 105.46 228.089 103.92 228.089 100.84ZM273.884 114C289.704 114 302.584 108.12 309.864 102.1C313.504 99.16 316.864 95.94 320.084 92.58L317.844 89.78C307.904 100 295.584 106.16 285.504 106.58C274.724 107 267.304 100.98 267.304 88.24C267.304 86.98 267.304 86 267.444 85.3C293.064 84.88 310.424 79.28 314.344 66.4C314.764 64.72 315.044 63.18 315.044 61.92C315.044 52.12 305.244 44 289.564 44H289.004C271.504 44 252.184 57.58 246.864 79.28C246.024 82.92 245.604 86.28 245.604 89.22C245.604 106.58 259.744 114 273.884 114ZM294.884 57.02C294.884 60.24 294.184 63.46 292.924 66.82C289.424 76.2 281.024 81.1 267.864 81.8C268.704 76.62 269.824 72.14 271.224 68.08C276.824 54.78 283.824 48.62 289.564 48.62C292.784 48.62 294.884 51.84 294.884 57.02ZM381.987 54.78C381.987 49.04 378.347 44 367.707 44C362.107 44 356.227 46.66 350.067 51.84L352.307 44H330.747L310.167 114H331.727L347.547 60.24C353.567 53.38 358.047 49.74 361.267 49.32C361.687 49.18 362.107 49.18 362.667 49.18C363.367 49.18 363.647 49.32 363.647 49.74C363.647 50.16 363.227 50.86 362.387 51.7C360.287 53.8 359.027 56.04 358.327 58.42C357.907 59.4 357.767 60.52 357.767 61.78C357.767 66.68 361.267 70.04 366.447 70.04C373.027 70.04 379.607 64.72 381.427 58.42C381.847 57.3 381.987 56.04 381.987 54.78ZM385.797 157.12C398.117 157.12 408.477 154.32 418.417 141.58C423.457 135.28 427.797 126.04 431.297 114L451.877 44H430.317L414.777 96.64C408.337 102.1 403.997 104.9 401.897 104.9C399.237 104.9 397.977 103.36 397.977 100.14C397.977 98.18 398.537 95.1 399.657 90.9L413.377 44H391.817L378.097 90.76C377.117 94.54 376.557 98.04 376.557 101.26C376.557 109.8 380.617 114 388.877 114C395.037 114 403.017 110.5 412.817 103.5L409.737 114L407.357 122.4C405.537 128.98 403.997 133.88 402.737 137.24C401.617 140.6 400.077 143.54 398.257 146.2C396.437 148.86 394.057 150.96 391.117 152.36C389.297 153.2 387.477 153.62 385.657 153.62C381.177 153.62 377.677 151.1 377.677 147.74C377.677 145.08 379.217 142.7 382.437 140.74C387.477 137.52 390.417 134.58 391.677 129.96C392.097 128.28 392.237 127.16 392.237 126.46C392.237 121 388.457 117.36 382.717 117.36C375.297 117.36 368.577 122.68 365.777 132.62C365.217 134.72 364.937 136.82 364.937 138.64C364.937 149.28 373.057 157.12 385.797 157.12Z" fill="white"/>
</g>
<defs>
<filter id="filter0_d_29_478" x="0" y="0.459991" width="455.877" height="164.66" filterUnits="userSpaceOnUse" color-interpolation-filters="sRGB">
<feFlood flood-opacity="0" result="BackgroundImageFix"/>
<feColorMatrix in="SourceAlpha" type="matrix" values="0 0 0 0 0 0 0 0 0 0 0 0 0 0 0 0 0 0 127 0" result="hardAlpha"/>
<feOffset dy="4"/>
<feGaussianBlur stdDeviation="2"/>
<feComposite in2="hardAlpha" operator="out"/>
<feColorMatrix type="matrix" values="0 0 0 0 0 0 0 0 0 0 0 0 0 0 0 0 0 0 0.25 0"/>
<feBlend mode="normal" in2="BackgroundImageFix" result="effect1_dropShadow_29_478"/>
<feBlend mode="normal" in="SourceGraphic" in2="effect1_dropShadow_29_478" result="shape"/>
</filter>
</defs>
</svg>
