<svg width="705" height="185" viewBox="0 0 705 185" fill="none" xmlns="http://www.w3.org/2000/svg">
<path d="M95.76 46.48C94.92 35.84 83.44 26.88 66.5 26.88C36.96 26.88 25.34 43.4 25.34 56.56C25.34 66.08 30.94 72.94 41.58 83.44C47.04 88.9 50.96 93.52 53.62 97.3C56.28 101.08 57.68 105.42 57.68 110.04C57.68 118.86 55.58 125.44 51.24 129.64C46.9 133.84 41.86 135.94 35.84 135.94C31.36 135.94 27.44 134.82 23.94 132.72C20.44 130.62 18.76 128.1 18.76 125.16C18.76 123.48 20.3 122.22 23.1 121.1C24.36 120.4 25.34 119.84 26.04 119.28L26.32 119C29.54 116.76 32.06 113.26 33.04 109.76C33.46 108.08 33.6 106.96 33.6 106.26C33.6 101.08 29.68 97.16 24.08 97.16C17.22 97.16 9.94 102.9 7.84 109.76V110.04C7.28 112 7 113.96 7 115.92C7 128.24 18.06 140 35.28 140C70.28 140.14 79.38 120.4 79.38 106.4C79.38 99.26 75.74 92.4 71.12 86.8C68.74 84 65.66 80.5 61.88 76.44C51.66 65.38 46.9 59.5 47.04 51.8C47.6 37.66 56.98 30.66 67.62 30.66C75.04 30.66 81.34 34.44 81.34 39.34C81.34 39.9 80.5 40.88 78.68 42.28C75.74 44.38 73.22 47.6 72.24 50.96C71.82 51.94 71.68 53.06 71.68 54.32C71.68 59.22 75.18 62.58 80.36 62.58C87.92 62.58 95.76 55.3 95.76 47.6V46.48ZM133.986 74.2H123.206L132.026 44.38L110.466 44.52L101.646 74.2H95.7661L93.8061 80.08H99.8261L90.8661 110.46C88.6261 118.02 87.5061 123.76 87.5061 127.68C87.5061 135.52 91.0061 140 100.386 140C106.406 140 112.566 138.32 118.586 134.82C124.606 131.32 129.086 128.38 132.026 125.72C134.966 123.06 138.606 119.56 142.806 115.36L140.706 112.7C136.366 116.76 131.326 120.82 125.586 125.16C119.846 129.36 115.366 131.46 112.146 131.46C109.486 131.46 108.226 129.92 108.226 126.7C108.226 125.58 108.506 124.04 108.926 122.22L121.386 80.08H132.026L133.986 74.2ZM201.64 95.2C201.64 80.5 191.42 70 176.16 70C157.82 69.58 136.96 86.1 131.92 105C130.94 108.22 130.52 111.44 130.52 114.8C130.52 129.5 140.74 140 156 140C174.34 140.42 195.2 123.9 200.24 105C201.22 101.78 201.64 98.56 201.64 95.2ZM153.48 106.54C159.64 84.84 168.74 74.62 176.16 74.62C179.52 74.62 181.48 78.82 181.48 85.96C181.48 91.42 180.5 97.16 178.68 103.46C172.52 125.3 163.42 135.38 156 135.38C152.64 135.38 150.68 131.04 150.68 124.18C150.68 119.28 151.66 113.4 153.48 106.54ZM272.651 80.78C272.651 75.04 269.011 70 258.371 70C252.771 70 246.891 72.66 240.731 77.84L242.971 70H221.411L200.831 140H222.391L238.211 86.24C244.231 79.38 248.711 75.74 251.931 75.32C252.351 75.18 252.771 75.18 253.331 75.18C254.031 75.18 254.311 75.32 254.311 75.74C254.311 76.16 253.891 76.86 253.051 77.7C250.951 79.8 249.691 82.04 248.991 84.42C248.571 85.4 248.431 86.52 248.431 87.78C248.431 92.68 251.931 96.04 257.111 96.04C263.691 96.04 270.271 90.72 272.091 84.42C272.511 83.3 272.651 82.04 272.651 80.78ZM276.461 183.12C288.781 183.12 299.141 180.32 309.081 167.58C314.121 161.28 318.461 152.04 321.961 140L342.541 70H320.981L305.441 122.64C299.001 128.1 294.661 130.9 292.561 130.9C289.901 130.9 288.641 129.36 288.641 126.14C288.641 124.18 289.201 121.1 290.321 116.9L304.041 70H282.481L268.761 116.76C267.781 120.54 267.221 124.04 267.221 127.26C267.221 135.8 271.281 140 279.541 140C285.701 140 293.681 136.5 303.481 129.5L300.401 140L298.021 148.4C296.201 154.98 294.661 159.88 293.401 163.24C292.281 166.6 290.741 169.54 288.921 172.2C287.101 174.86 284.721 176.96 281.781 178.36C279.961 179.2 278.141 179.62 276.321 179.62C271.841 179.62 268.341 177.1 268.341 173.74C268.341 171.08 269.881 168.7 273.101 166.74C278.141 163.52 281.081 160.58 282.341 155.96C282.761 154.28 282.901 153.16 282.901 152.46C282.901 147 279.121 143.36 273.381 143.36C265.961 143.36 259.241 148.68 256.441 158.62C255.881 160.72 255.601 162.82 255.601 164.64C255.601 175.28 263.721 183.12 276.461 183.12Z" fill="white"/>
<path d="M442.86 88.48C442.86 83.72 441.46 79.52 438.66 75.74C436 71.96 431.8 70 426.06 70C417.24 70 408.7 73.64 401.98 80.22L404.92 70H383.36L350.04 183.12H371.6L384.76 138.46C387.56 139.44 390.64 140 393.86 140C421.58 140.84 443.42 111.72 442.86 88.48ZM421.86 89.88C422.56 112 403.52 134.96 393.86 134.4C390.36 134.4 388.26 132.86 387.28 129.64L398.76 90.44C404.5 82.6 409.4 78.54 414.3 78.54C419.48 78.54 421.86 84.28 421.86 89.88ZM516.393 95.2C516.393 80.5 506.173 70 490.913 70C472.573 69.58 451.713 86.1 446.673 105C445.693 108.22 445.273 111.44 445.273 114.8C445.273 129.5 455.493 140 470.753 140C489.093 140.42 509.953 123.9 514.993 105C515.973 101.78 516.393 98.56 516.393 95.2ZM468.233 106.54C474.393 84.84 483.493 74.62 490.913 74.62C494.273 74.62 496.233 78.82 496.233 85.96C496.233 91.42 495.253 97.16 493.433 103.46C487.273 125.3 478.173 135.38 470.753 135.38C467.393 135.38 465.433 131.04 465.433 124.18C465.433 119.28 466.413 113.4 468.233 106.54ZM588.805 83.02C588.805 82.04 588.525 80.78 587.965 79.24C586.285 75.74 582.785 73.36 577.605 72.1C572.425 70.7 567.525 70 563.185 70C545.405 70 528.045 77.84 528.045 89.18C528.045 94.92 532.945 98.84 543.025 105.14C553.525 111.86 558.565 115.78 558.565 121.94C558.565 130.76 551.705 136.64 544.285 136.64C541.765 136.64 539.105 136.22 536.305 135.52C533.505 134.68 532.105 133.84 532.105 133C532.105 132.44 536.165 130.48 537.705 129.22L537.985 128.94C541.205 126.7 543.725 123.2 544.705 119.7C545.125 118.02 545.265 116.9 545.265 116.2C545.265 111.02 541.345 107.1 535.745 107.1C528.885 107.1 521.605 112.84 519.505 119.7V119.98C519.085 121.66 518.805 123.06 518.805 124.32C518.805 129.36 521.325 133.28 526.225 135.94C531.125 138.6 537.005 140 543.585 140C568.225 140 580.265 130.62 580.265 118.3C580.265 111.02 574.805 106.4 563.745 99.12C554.365 92.96 549.745 89.46 549.745 84C549.745 77.7 556.745 73.5 563.605 73.5C567.665 73.5 572.425 74.62 572.425 76.3C572.425 77 570.885 78.12 570.325 78.68C567.665 80.78 565.985 83.3 565.145 86.24C564.725 87.22 564.585 88.34 564.585 89.6C564.585 94.5 568.085 97.86 573.265 97.86C580.685 97.86 588.805 90.58 588.805 83.02ZM637.342 74.2H626.562L635.382 44.38L613.822 44.52L605.002 74.2H599.122L597.162 80.08H603.182L594.222 110.46C591.982 118.02 590.862 123.76 590.862 127.68C590.862 135.52 594.362 140 603.742 140C609.762 140 615.922 138.32 621.942 134.82C627.962 131.32 632.442 128.38 635.382 125.72C638.322 123.06 641.962 119.56 646.162 115.36L644.062 112.7C639.722 116.76 634.682 120.82 628.942 125.16C623.202 129.36 618.722 131.46 615.502 131.46C612.842 131.46 611.582 129.92 611.582 126.7C611.582 125.58 611.862 124.04 612.282 122.22L624.742 80.08H635.382L637.342 74.2ZM703.875 83.02C703.875 82.04 703.595 80.78 703.035 79.24C701.355 75.74 697.855 73.36 692.675 72.1C687.495 70.7 682.595 70 678.255 70C660.475 70 643.115 77.84 643.115 89.18C643.115 94.92 648.015 98.84 658.095 105.14C668.595 111.86 673.635 115.78 673.635 121.94C673.635 130.76 666.775 136.64 659.355 136.64C656.835 136.64 654.175 136.22 651.375 135.52C648.575 134.68 647.175 133.84 647.175 133C647.175 132.44 651.235 130.48 652.775 129.22L653.055 128.94C656.275 126.7 658.795 123.2 659.775 119.7C660.195 118.02 660.335 116.9 660.335 116.2C660.335 111.02 656.415 107.1 650.815 107.1C643.955 107.1 636.675 112.84 634.575 119.7V119.98C634.155 121.66 633.875 123.06 633.875 124.32C633.875 129.36 636.395 133.28 641.295 135.94C646.195 138.6 652.075 140 658.655 140C683.295 140 695.335 130.62 695.335 118.3C695.335 111.02 689.875 106.4 678.815 99.12C669.435 92.96 664.815 89.46 664.815 84C664.815 77.7 671.815 73.5 678.675 73.5C682.735 73.5 687.495 74.62 687.495 76.3C687.495 77 685.955 78.12 685.395 78.68C682.735 80.78 681.055 83.3 680.215 86.24C679.795 87.22 679.655 88.34 679.655 89.6C679.655 94.5 683.155 97.86 688.335 97.86C695.755 97.86 703.875 90.58 703.875 83.02Z" fill="white"/>
</svg>
