<svg width="356" height="353" viewBox="0 0 356 353" fill="none" xmlns="http://www.w3.org/2000/svg">
<path d="M144.765 335.561C146.173 335.909 147.171 336.584 147.758 337.586C148.345 338.589 148.448 339.861 148.067 341.404L146.527 347.632L145.378 347.348L146.906 341.166C147.218 339.903 147.166 338.89 146.75 338.128C146.335 337.366 145.588 336.852 144.511 336.586C143.424 336.317 142.519 336.423 141.796 336.903C141.073 337.384 140.555 338.256 140.242 339.519L138.714 345.701L137.596 345.424L139.136 339.196C139.517 337.653 140.201 336.575 141.188 335.962C142.164 335.346 143.356 335.213 144.765 335.561Z" fill="white"/>
<path d="M109.871 324.086L110.933 330.106L116.342 327.28L117.562 327.882L111.196 331.163L112.361 337.805L111.141 337.203L110.139 331.605L105.101 334.222L103.953 333.655L109.905 330.562L108.637 323.477L109.871 324.086Z" fill="white"/>
<path d="M75.4161 319.448L74.5756 318.836L87.7193 309.764L88.5598 310.377L75.4161 319.448Z" fill="white"/>
<path d="M66.4561 294.601C67.47 295.639 67.9627 296.738 67.9342 297.899C67.9057 299.061 67.3231 300.197 66.1864 301.307L61.5976 305.792L60.7701 304.945L65.3246 300.494C66.2553 299.585 66.7445 298.696 66.7922 297.83C66.84 296.963 66.4762 296.132 65.7008 295.339C64.9181 294.538 64.0928 294.151 63.225 294.179C62.3573 294.207 61.458 294.675 60.5273 295.585L55.9728 300.036L55.1677 299.212L59.7565 294.727C60.8932 293.617 62.0424 293.06 63.204 293.059C64.3582 293.049 65.4422 293.563 66.4561 294.601Z" fill="white"/>
<path d="M38.0239 279.197L37.3528 278.222L46.5801 271.874L47.2512 272.849L38.0239 279.197Z" fill="white"/>
<path d="M17.9463 244.024L16.4537 239.715C16.0661 238.597 15.9507 237.53 16.1075 236.517C16.2542 235.506 16.6487 234.624 17.2909 233.871C17.923 233.122 18.7531 232.569 19.7812 232.213C20.8093 231.857 21.8085 231.776 22.7789 231.97C23.7393 232.168 24.5946 232.617 25.345 233.317C26.0852 234.02 26.6491 234.931 27.0367 236.049L28.5293 240.358L17.9463 244.024ZM26.09 236.445C25.7688 235.518 25.3063 234.769 24.7026 234.199C24.0887 233.633 23.3929 233.27 22.6152 233.111C21.8274 232.955 21.0102 233.023 20.1635 233.317C19.3169 233.61 18.6374 234.06 18.125 234.666C17.6025 235.276 17.2803 235.992 17.1584 236.813C17.0264 237.637 17.121 238.513 17.4422 239.441L18.5263 242.57L27.1742 239.575L26.09 236.445Z" fill="white"/>
<path d="M14.0496 201.418L15.0447 208.388C15.9015 208.201 16.5563 207.768 17.0088 207.089C17.4509 206.412 17.6063 205.614 17.4751 204.695C17.4013 204.178 17.2437 203.715 17.0023 203.308C16.7504 202.902 16.4224 202.567 16.0181 202.301L16.6563 201.563C17.1525 201.87 17.5568 202.286 17.869 202.813C18.1797 203.328 18.3826 203.919 18.4775 204.584C18.5997 205.44 18.5287 206.226 18.2647 206.942C17.9886 207.65 17.5548 208.234 16.9635 208.696C16.3721 209.157 15.6699 209.446 14.8568 209.562C14.0437 209.678 13.2902 209.608 12.5963 209.352C11.9009 209.084 11.33 208.67 10.8835 208.109C10.4356 207.537 10.1565 206.866 10.0465 206.095C9.9364 205.324 10.0172 204.607 10.2887 203.943C10.5603 203.28 10.9933 202.728 11.5877 202.287C12.1715 201.848 12.8752 201.57 13.6989 201.452L14.0496 201.418ZM11.0127 205.957C11.1273 206.76 11.4825 207.399 12.0783 207.874C12.662 208.34 13.371 208.551 14.2052 208.508L13.3616 202.6C12.5485 202.791 11.9278 203.198 11.4993 203.819C11.0588 204.431 10.8966 205.144 11.0127 205.957Z" fill="white"/>
<path d="M16.1722 178.453C16.1549 179.136 16.0423 179.789 15.8344 180.413C15.6161 181.027 15.3532 181.506 15.0457 181.85L14.163 181.315C14.4492 180.97 14.6896 180.534 14.8844 180.005C15.0686 179.476 15.1679 178.924 15.1825 178.348C15.202 177.58 15.0991 177.012 14.8737 176.644C14.6379 176.264 14.3014 176.069 13.8642 176.058C13.555 176.05 13.3125 176.145 13.1367 176.344C12.9503 176.542 12.8105 176.794 12.7174 177.101C12.6136 177.408 12.5125 177.816 12.4142 178.326C12.269 179.005 12.1271 179.551 11.9886 179.964C11.8394 180.376 11.6011 180.728 11.2736 181.018C10.9464 181.298 10.5002 181.431 9.93507 181.416C9.23129 181.398 8.66292 181.09 8.22994 180.493C7.79696 179.895 7.59372 179.073 7.62023 178.028C7.63402 177.485 7.72246 176.943 7.88554 176.403C8.03795 175.862 8.23592 175.419 8.47944 175.073L9.37857 175.592C8.88114 176.273 8.62025 177.093 8.59591 178.053C8.57752 178.778 8.69155 179.331 8.938 179.71C9.18472 180.079 9.51602 180.269 9.93188 180.28C10.2518 180.288 10.5103 180.193 10.7073 179.995C10.9047 179.787 11.0553 179.529 11.1591 179.223C11.2522 178.915 11.3537 178.491 11.4635 177.95C11.6085 177.281 11.7501 176.746 11.8883 176.344C12.0265 175.942 12.2539 175.601 12.5705 175.321C12.887 175.041 13.3172 174.908 13.861 174.922C14.5968 174.94 15.1754 175.264 15.5969 175.894C16.008 176.513 16.1998 177.366 16.1722 178.453Z" fill="white"/>
<path d="M9.42027 153.374L9.61031 152.254L17.9077 153.662L17.7177 154.782L9.42027 153.374ZM7.70256 152.499C7.6633 152.73 7.55142 152.911 7.36691 153.042C7.1824 153.173 6.97972 153.22 6.75887 153.182C6.54855 153.147 6.37789 153.036 6.24691 152.852C6.11594 152.667 6.07007 152.46 6.10933 152.228C6.14859 151.997 6.26047 151.816 6.44498 151.685C6.61898 151.552 6.81114 151.503 7.02147 151.539C7.25283 151.578 7.434 151.69 7.56498 151.875C7.69595 152.059 7.74182 152.267 7.70256 152.499Z" fill="white"/>
<path d="M16.1309 124.812L23.1406 127.159C24.496 127.613 25.3856 128.282 25.8095 129.166C26.2469 130.043 26.2421 131.15 25.7951 132.485C25.548 133.223 25.2014 133.889 24.7553 134.482C24.3228 135.069 23.845 135.505 23.3218 135.791L22.6853 134.97C23.1579 134.701 23.5817 134.326 23.9567 133.844C24.3352 133.352 24.6259 132.802 24.8291 132.195C25.1677 131.184 25.1789 130.361 24.8626 129.726C24.5565 129.095 23.9078 128.614 22.9165 128.282L21.9 127.942C22.294 128.445 22.531 129.013 22.6112 129.648C22.6947 130.272 22.6264 130.912 22.4063 131.57C22.1558 132.318 21.7654 132.947 21.2351 133.456C20.6982 133.951 20.0771 134.277 19.3719 134.435C18.66 134.579 17.9298 134.526 17.1813 134.275C16.4328 134.025 15.8228 133.629 15.3512 133.089C14.8831 132.539 14.5887 131.906 14.4682 131.19C14.3477 130.475 14.4144 129.738 14.6684 128.98C14.8953 128.302 15.2367 127.736 15.6926 127.281C16.1486 126.826 16.6903 126.518 17.3179 126.357L15.7855 125.844L16.1309 124.812ZM21.486 131.144C21.679 130.567 21.732 130.006 21.645 129.459C21.5479 128.909 21.3192 128.433 20.9587 128.031C20.6017 127.619 20.14 127.319 19.5736 127.129C19.0071 126.939 18.4624 126.903 17.9394 127.021C17.4097 127.125 16.9456 127.369 16.5471 127.753C16.1418 128.123 15.841 128.602 15.6446 129.188C15.4516 129.765 15.3986 130.326 15.4856 130.873C15.576 131.409 15.7997 131.884 16.1567 132.296C16.5172 132.697 16.9806 132.993 17.547 133.183C18.1134 133.372 18.6615 133.415 19.1912 133.311C19.7243 133.197 20.1935 132.955 20.5987 132.585C20.9973 132.201 21.293 131.72 21.486 131.144Z" fill="white"/>
<path d="M27.0212 98.6586C27.5373 97.7373 28.2164 97.1579 29.0585 96.9205C29.8965 96.6686 30.8273 96.8293 31.851 97.4027L36.1086 99.7876L35.5534 100.779L31.3935 98.4486C30.6304 98.0211 29.9419 97.8861 29.3281 98.0435C28.7142 98.2009 28.2091 98.6332 27.813 99.3405C27.3699 100.132 27.2553 100.893 27.4693 101.624C27.6792 102.34 28.1982 102.931 29.0265 103.395L32.8792 105.553L32.324 106.544L24.9815 102.431L25.5132 101.482L26.8672 102.24C26.5717 101.72 26.4359 101.155 26.4598 100.545C26.4796 99.9201 26.6667 99.2914 27.0212 98.6586Z" fill="white"/>
<path d="M49.764 72.7447L45.2827 78.1742C45.998 78.6816 46.7589 78.874 47.5655 78.7514C48.3639 78.6219 49.0584 78.1994 49.6491 77.4837C49.9818 77.0806 50.2174 76.6527 50.356 76.2C50.4863 75.7405 50.5134 75.2719 50.4374 74.7942L51.4124 74.7691C51.5203 75.3422 51.4848 75.9215 51.3059 76.5069C51.1338 77.084 50.8339 77.6317 50.4061 78.15C49.8562 78.8163 49.2274 79.2932 48.52 79.5806C47.8111 79.853 47.0869 79.9261 46.3474 79.7998C45.608 79.6736 44.9215 79.3491 44.2881 78.8262C43.6546 78.3034 43.199 77.6992 42.9213 77.0135C42.6503 76.3196 42.5719 75.6187 42.686 74.9107C42.8069 74.1945 43.1152 73.5361 43.6109 72.9356C44.1065 72.335 44.6911 71.9116 45.3646 71.6653C46.0381 71.4191 46.7378 71.3673 47.4637 71.51C48.1814 71.6459 48.861 71.9787 49.5027 72.5083L49.764 72.7447ZM44.3636 73.5568C43.8476 74.1821 43.6146 74.8749 43.6646 75.6354C43.7132 76.3809 44.0345 77.0472 44.6287 77.6344L48.4276 73.0317C47.7384 72.5596 47.0198 72.3746 46.2719 72.4764C45.5225 72.5633 44.8864 72.9234 44.3636 73.5568Z" fill="white"/>
<path d="M62.7482 54.5136C62.5773 53.9124 62.594 53.3314 62.7984 52.7707C63.0108 52.203 63.4103 51.6631 63.9969 51.1511L64.7229 51.9827L64.5075 52.1496C63.8405 52.7318 63.4971 53.3927 63.4771 54.1322C63.4572 54.8717 63.7699 55.6111 64.4153 56.3503L67.2352 59.5807L66.3794 60.3277L60.8448 53.9876L61.6644 53.2721L62.7482 54.5136Z" fill="white"/>
<path d="M143.538 9.17048L144.217 13.5178L149.939 12.6239L150.097 13.6356L144.375 14.5295L145.108 19.2246L143.938 19.4073L142.21 8.34148L149.798 7.15621L149.956 8.16794L143.538 9.17048Z" fill="white"/>
<path d="M174.7 9.27435C174.976 8.71344 175.377 8.29327 175.905 8.01383C176.442 7.73457 177.101 7.60129 177.879 7.61399L177.861 8.71784L177.59 8.69741C176.704 8.68297 176.007 8.94362 175.497 9.47937C174.986 10.0151 174.723 10.7736 174.707 11.7548L174.637 16.0422L173.502 16.0237L173.639 7.60883L174.727 7.62657L174.7 9.27435Z" fill="white"/>
<path d="M202.122 17.9719C201.326 17.8208 200.642 17.5064 200.07 17.0287C199.501 16.5406 199.093 15.9421 198.848 15.2332C198.602 14.5244 198.556 13.7665 198.709 12.9595C198.862 12.1526 199.183 11.4643 199.671 10.8947C200.159 10.3251 200.757 9.92275 201.464 9.68777C202.17 9.4528 202.922 9.4109 203.719 9.56207C204.515 9.71324 205.199 10.0276 205.771 10.5053C206.342 10.9829 206.746 11.5752 206.981 12.2821C207.226 12.9909 207.272 13.7488 207.119 14.5558C206.966 15.3627 206.645 16.051 206.157 16.6206C205.679 17.1922 205.086 17.6008 204.377 17.8462C203.67 18.0812 202.919 18.1231 202.122 17.9719ZM202.31 16.9816C202.897 17.093 203.446 17.0615 203.957 16.887C204.48 16.704 204.919 16.3911 205.275 15.9483C205.63 15.5055 205.868 14.9697 205.987 14.3409C206.107 13.7122 206.082 13.1266 205.913 12.5844C205.745 12.0421 205.45 11.5952 205.028 11.2437C204.619 10.8837 204.12 10.6481 203.534 10.5367C202.947 10.4253 202.392 10.4611 201.868 10.644C201.357 10.8185 200.919 11.1261 200.553 11.567C200.198 12.0098 199.96 12.5456 199.841 13.1744C199.722 13.8031 199.746 14.3886 199.915 14.9309C200.094 15.4752 200.388 15.9273 200.797 16.2873C201.219 16.6388 201.723 16.8702 202.31 16.9816Z" fill="white"/>
<path d="M235.367 17.6953C236.35 18.0822 237.015 18.6768 237.364 19.4791C237.727 20.2754 237.694 21.2195 237.264 22.3112L235.476 26.8518L234.419 26.4356L236.166 21.9992C236.486 21.1853 236.527 20.4849 236.288 19.8979C236.049 19.3109 235.553 18.8689 234.798 18.5718C233.955 18.2396 233.185 18.2289 232.49 18.5396C231.808 18.8444 231.293 19.4384 230.945 20.3217L229.327 24.4306L228.27 24.0144L231.354 16.1836L232.366 16.5823L231.797 18.0264C232.273 17.6633 232.815 17.4524 233.422 17.3937C234.044 17.329 234.692 17.4295 235.367 17.6953Z" fill="white"/>
<path d="M259.638 37.9371C259.357 37.9926 259.051 37.9841 258.722 37.9116C258.407 37.8355 258.103 37.7099 257.81 37.535C257.132 37.1303 256.72 36.6355 256.572 36.0504C256.424 35.4653 256.55 34.8385 256.949 34.1699L259.558 29.8014L258.266 29.0304L258.758 28.2061L260.05 28.9771L260.993 27.3973L261.968 27.9796L261.025 29.5595L263.223 30.8718L262.731 31.6961L260.533 30.3837L257.958 34.6974C257.701 35.1278 257.609 35.5204 257.683 35.8751C257.772 36.2262 258.017 36.522 258.42 36.7626C258.622 36.8829 258.833 36.9656 259.055 37.0109C259.285 37.0616 259.505 37.0685 259.713 37.0314L259.638 37.9371Z" fill="white"/>
<path d="M282.74 50.0416L277.325 45.543C276.815 46.2567 276.62 47.017 276.74 47.824C276.867 48.6228 277.287 49.3186 278.001 49.9116C278.403 50.2456 278.83 50.4826 279.283 50.6226C279.742 50.7544 280.21 50.783 280.688 50.7085L280.71 51.6836C280.137 51.7897 279.558 51.7523 278.973 51.5716C278.396 51.3976 277.849 51.096 277.333 50.6665C276.668 50.1144 276.193 49.4842 275.908 48.7758C275.638 48.0661 275.567 47.3417 275.696 46.6026C275.824 45.8635 276.151 45.1781 276.676 44.5464C277.201 43.9146 277.806 43.4609 278.493 43.1854C279.188 42.9166 279.889 42.8404 280.596 42.9568C281.312 43.08 281.97 43.3903 282.569 43.8879C283.168 44.3855 283.589 44.9714 283.833 45.6457C284.077 46.32 284.127 47.0199 283.982 47.7453C283.844 48.4625 283.509 49.1411 282.977 49.7811L282.74 50.0416ZM281.945 44.6387C281.321 44.1206 280.629 43.8854 279.869 43.933C279.123 43.9792 278.456 44.2985 277.867 44.8907L282.457 48.7043C282.931 48.0166 283.119 47.2987 283.019 46.5504C282.935 45.8007 282.577 45.1635 281.945 44.6387Z" fill="white"/>
<path d="M304.627 64.6491C305.305 65.458 305.607 66.2982 305.53 67.1698C305.469 68.0428 304.989 68.8563 304.09 69.6106L300.352 72.7476L299.622 71.8774L303.274 68.8124C303.944 68.2501 304.315 67.6541 304.385 67.0242C304.455 66.3944 304.23 65.769 303.708 65.148C303.126 64.4535 302.454 64.0768 301.695 64.0179C300.95 63.9604 300.214 64.2368 299.487 64.847L296.105 67.6857L295.374 66.8155L301.821 61.4055L302.52 62.239L301.332 63.2366C301.923 63.1445 302.499 63.2176 303.061 63.456C303.639 63.6958 304.16 64.0935 304.627 64.6491Z" fill="white"/>
<path d="M328.061 91.6237L317.703 97.4256L317.171 96.4763L318.623 95.6631C317.963 95.6416 317.365 95.4572 316.828 95.1099C316.296 94.772 315.858 94.2959 315.514 93.6817C315.128 92.993 314.937 92.2809 314.941 91.5453C314.945 90.8097 315.142 90.1247 315.532 89.4903C315.923 88.8559 316.481 88.3354 317.207 87.9288C317.933 87.5222 318.668 87.3181 319.413 87.3166C320.158 87.315 320.84 87.5074 321.46 87.8937C322.089 88.2749 322.597 88.8098 322.982 89.4984C323.316 90.094 323.49 90.6995 323.505 91.3148C323.534 91.9343 323.397 92.5305 323.095 93.1034L327.506 90.6326L328.061 91.6237ZM316.441 93.2728C316.727 93.7847 317.102 94.1802 317.564 94.4593C318.04 94.7426 318.562 94.878 319.13 94.8657C319.703 94.8626 320.269 94.7047 320.827 94.3919C321.385 94.0792 321.815 93.6793 322.117 93.1923C322.424 92.7147 322.577 92.2013 322.575 91.6522C322.588 91.1072 322.451 90.5788 322.164 90.067C321.872 89.5458 321.488 89.1436 321.011 88.8604C320.549 88.5812 320.032 88.4432 319.459 88.4462C318.891 88.4586 318.328 88.6211 317.77 88.9339C317.211 89.2467 316.779 89.6419 316.471 90.1195C316.17 90.6065 316.012 91.1225 316 91.6675C316.002 92.2166 316.149 92.7517 316.441 93.2728Z" fill="white"/>
<path d="M344.028 130.675L344.992 135.132C345.242 136.289 345.229 137.361 344.951 138.349C344.684 139.334 344.186 140.162 343.458 140.833C342.74 141.501 341.85 141.95 340.786 142.18C339.723 142.41 338.721 142.37 337.781 142.06C336.852 141.748 336.057 141.2 335.396 140.415C334.745 139.628 334.295 138.656 334.045 137.499L333.081 133.042L344.028 130.675ZM335.032 137.22C335.24 138.179 335.609 138.977 336.14 139.616C336.681 140.252 337.328 140.696 338.081 140.948C338.844 141.197 339.664 141.227 340.54 141.038C341.415 140.849 342.144 140.484 342.726 139.943C343.318 139.401 343.724 138.729 343.943 137.928C344.174 137.126 344.185 136.245 343.978 135.286L343.278 132.048L334.332 133.982L335.032 137.22Z" fill="white"/>
<path d="M342.773 173.44L342.624 166.401C341.75 166.484 341.048 166.835 340.517 167.454C339.997 168.074 339.747 168.847 339.767 169.775C339.778 170.297 339.879 170.775 340.069 171.209C340.271 171.642 340.556 172.015 340.925 172.327L340.203 172.982C339.747 172.619 339.396 172.157 339.149 171.596C338.903 171.047 338.773 170.436 338.758 169.764C338.74 168.901 338.905 168.129 339.253 167.449C339.612 166.78 340.113 166.252 340.756 165.865C341.398 165.478 342.13 165.276 342.951 165.258C343.772 165.241 344.512 165.401 345.17 165.739C345.828 166.088 346.345 166.568 346.721 167.178C347.097 167.8 347.293 168.5 347.31 169.278C347.326 170.057 347.16 170.759 346.811 171.385C346.461 172.012 345.965 172.508 345.322 172.873C344.69 173.239 343.957 173.431 343.126 173.448L342.773 173.44ZM346.334 169.299C346.317 168.489 346.041 167.812 345.507 167.268C344.983 166.735 344.305 166.44 343.471 166.383L343.598 172.35C344.429 172.258 345.094 171.929 345.594 171.363C346.105 170.808 346.352 170.12 346.334 169.299Z" fill="white"/>
<path d="M345.578 202.284L337.856 197.261L338.04 196.108L346.938 193.752L346.752 194.921L339.177 196.905L345.754 201.178L345.578 202.284Z" fill="white"/>
<path d="M333.68 231.717L336.012 225.074C335.165 224.845 334.385 224.927 333.67 225.32C332.966 225.717 332.46 226.354 332.152 227.229C331.979 227.722 331.906 228.205 331.932 228.678C331.968 229.154 332.105 229.603 332.341 230.026L331.435 230.386C331.135 229.885 330.969 229.329 330.935 228.718C330.897 228.117 330.989 227.499 331.212 226.865C331.498 226.05 331.923 225.385 332.488 224.871C333.059 224.371 333.714 224.052 334.451 223.916C335.189 223.779 335.945 223.847 336.72 224.119C337.495 224.391 338.131 224.8 338.629 225.348C339.123 225.906 339.438 226.536 339.576 227.24C339.709 227.954 339.647 228.679 339.389 229.413C339.132 230.148 338.729 230.747 338.182 231.211C337.635 231.674 336.996 231.965 336.266 232.081C335.545 232.201 334.792 232.124 334.007 231.848L333.68 231.717ZM338.469 229.09C338.737 228.325 338.717 227.594 338.407 226.898C338.104 226.215 337.572 225.701 336.812 225.355L334.836 230.986C335.645 231.191 336.384 231.117 337.051 230.763C337.724 230.423 338.197 229.865 338.469 229.09Z" fill="white"/>
<path d="M332.965 254.248L332.44 255.255L321.911 249.77L322.436 248.763L332.965 254.248Z" fill="white"/>
<path d="M311.128 268.159C311.607 267.504 312.184 267.021 312.861 266.71C313.546 266.405 314.262 266.294 315.007 266.376C315.753 266.459 316.457 266.742 317.121 267.227C317.784 267.711 318.268 268.296 318.573 268.982C318.878 269.667 318.985 270.379 318.894 271.119C318.802 271.858 318.518 272.555 318.039 273.21C317.561 273.864 316.983 274.347 316.307 274.658C315.63 274.97 314.922 275.08 314.183 274.988C313.437 274.906 312.733 274.622 312.07 274.138C311.406 273.653 310.922 273.068 310.617 272.383C310.306 271.706 310.192 270.995 310.274 270.249C310.365 269.51 310.65 268.813 311.128 268.159ZM311.942 268.753C311.59 269.236 311.383 269.745 311.321 270.281C311.262 270.832 311.356 271.363 311.603 271.875C311.851 272.386 312.233 272.83 312.749 273.208C313.266 273.585 313.805 273.814 314.367 273.895C314.93 273.975 315.46 273.901 315.958 273.67C316.459 273.455 316.886 273.106 317.238 272.624C317.591 272.142 317.797 271.625 317.856 271.074C317.918 270.538 317.828 270.01 317.587 269.49C317.34 268.979 316.957 268.535 316.441 268.157C315.924 267.779 315.385 267.55 314.823 267.47C314.254 267.398 313.72 267.469 313.219 267.685C312.72 267.915 312.295 268.271 311.942 268.753Z" fill="white"/>
<path d="M297.076 298.338C296.499 298.877 295.853 299.233 295.138 299.405C294.43 299.585 293.722 299.562 293.013 299.334C292.303 299.107 291.664 298.689 291.096 298.082C290.52 297.466 290.143 296.797 289.963 296.074C289.783 295.351 289.803 294.639 290.023 293.937C290.242 293.25 290.644 292.633 291.228 292.086C291.726 291.62 292.273 291.299 292.867 291.122C293.461 290.961 294.073 290.959 294.701 291.116L291.499 287.692L292.328 286.916L300.198 295.329L299.404 296.072L298.267 294.857C298.397 295.495 298.361 296.113 298.16 296.71C297.951 297.314 297.59 297.857 297.076 298.338ZM291.975 292.768C291.546 293.169 291.248 293.63 291.08 294.153C290.919 294.684 290.912 295.223 291.06 295.771C291.2 296.327 291.488 296.838 291.925 297.306C292.363 297.773 292.85 298.091 293.388 298.26C293.925 298.444 294.464 298.473 295.004 298.348C295.544 298.222 296.028 297.959 296.456 297.558C296.893 297.15 297.191 296.681 297.352 296.151C297.506 295.628 297.512 295.088 297.372 294.533C297.232 293.992 296.943 293.488 296.506 293.021C296.069 292.553 295.581 292.228 295.044 292.044C294.499 291.867 293.96 291.838 293.428 291.956C292.896 292.089 292.411 292.36 291.975 292.768Z" fill="white"/>
<path d="M267.58 316.101L273.497 312.287C272.969 311.586 272.302 311.172 271.497 311.044C270.697 310.925 269.907 311.118 269.127 311.62C268.687 311.904 268.333 312.24 268.064 312.629C267.8 313.028 267.632 313.466 267.56 313.944L266.623 313.672C266.694 313.093 266.904 312.552 267.252 312.049C267.591 311.551 268.043 311.12 268.607 310.756C269.334 310.288 270.077 310.024 270.839 309.965C271.597 309.92 272.309 310.07 272.975 310.415C273.642 310.759 274.197 311.277 274.642 311.967C275.088 312.657 275.338 313.371 275.395 314.109C275.443 314.852 275.305 315.544 274.982 316.184C274.649 316.83 274.156 317.364 273.501 317.785C272.847 318.207 272.161 318.434 271.445 318.464C270.728 318.494 270.046 318.332 269.398 317.975C268.755 317.628 268.208 317.105 267.757 316.406L267.58 316.101ZM272.972 316.965C273.654 316.526 274.086 315.936 274.269 315.197C274.449 314.471 274.345 313.739 273.956 312.999L268.941 316.233C269.454 316.892 270.083 317.286 270.826 317.416C271.567 317.561 272.282 317.41 272.972 316.965Z" fill="white"/>
<path d="M249.679 329.536C249.659 330.161 249.467 330.709 249.102 331.182C248.728 331.658 248.183 332.052 247.469 332.362L247.029 331.349L247.285 331.255C248.097 330.903 248.625 330.377 248.868 329.678C249.111 328.98 249.038 328.18 248.647 327.28L246.939 323.347L247.982 322.895L251.333 330.615L250.335 331.048L249.679 329.536Z" fill="white"/>
</svg>
