<svg width="630" height="295" viewBox="0 0 630 295" fill="none" xmlns="http://www.w3.org/2000/svg">
<path d="M100.42 120.723C106.425 120.723 112.151 119.327 117.319 116.395C122.487 113.464 126.397 110.393 128.911 107.183C131.565 103.973 132.962 102.158 133.241 101.879L131.146 99.2268L128.353 102.018C122.207 108.3 117.598 112.208 112.151 112.208C109.498 112.208 108.241 110.673 108.241 107.602C108.241 106.066 108.52 104.531 108.939 102.996L126.956 42.277C128.353 37.3917 129.051 32.925 129.051 28.8771C129.051 11.0105 115.783 0.402222 91.7603 0.402222C72.9054 0.402222 56.4249 3.61262 42.4583 10.173C28.6315 16.7334 18.0169 24.8292 10.7543 34.4604C3.63131 44.0916 0 53.5832 0 62.7957C0 77.1727 9.07826 87.2227 25.8381 88.4789C38.1287 89.456 46.6483 82.0581 49.302 71.8686C49.5813 70.7519 49.721 69.6353 49.721 68.5186C49.721 63.6332 46.788 60.4228 41.0617 60.4228C33.5197 60.4228 25.6985 67.6811 25.6985 75.2186C25.6985 79.2665 28.3521 82.3373 32.4024 83.3144C32.8214 83.4539 32.8214 83.5935 32.5421 83.8727C32.1231 84.2915 31.2851 84.431 29.8884 84.431C28.6315 84.431 27.3745 84.2915 25.8381 83.8727C21.5085 82.756 19.4135 78.0102 19.4135 70.7519C19.4135 62.377 22.0672 53.0249 27.5141 42.8354C32.9611 32.6458 40.922 23.8521 51.5366 16.4542C62.2909 9.05636 75.0004 5.4272 89.6653 5.4272C103.073 5.4272 108.939 11.1501 108.939 22.875C108.939 27.7604 107.822 34.3208 105.448 42.277L95.5313 75.4977H73.6038L102.096 12.9647H80.5871L31.4248 120.723H52.9333L70.1121 83.0352H93.2966L90.9223 91.2706C88.6877 98.8081 87.5703 104.531 87.5703 108.579C87.5703 116.256 91.062 120.723 100.42 120.723Z" fill="white"/>
<path d="M179.468 120.723C185.474 120.723 191.2 119.327 196.368 116.395C201.535 113.464 205.446 110.393 207.96 107.183C210.614 103.973 212.01 102.158 212.29 101.879L210.195 99.2268L207.401 102.018C201.256 108.3 196.647 112.208 191.2 112.208C188.546 112.208 187.289 110.673 187.289 107.462C187.289 106.346 187.569 104.81 187.988 102.996L203.351 50.9312H181.842L169.971 91.2706C168.435 96.7143 167.597 100.623 167.178 102.856C160.194 108.718 155.585 111.65 153.49 111.65C150.837 111.65 149.58 110.114 149.58 106.904C149.58 104.95 150.138 101.879 151.256 97.6914L164.943 50.9312H143.434L129.747 97.5518C128.77 101.321 128.211 104.81 128.211 108.021C128.211 116.535 132.261 120.723 140.501 120.723C146.786 120.723 155.585 116.675 166.619 108.718C166.619 116.675 170.949 120.723 179.468 120.723Z" fill="white"/>
<path d="M276.366 66.9832C276.366 55.2582 267.567 50.9312 252.902 50.9312C225.248 50.0937 203.46 79.1269 204.019 102.298C204.019 107.043 205.415 111.37 208.069 115.139C210.862 118.908 215.052 120.723 220.779 120.723C228.879 120.723 236.281 117.931 242.846 112.487L240.332 120.723L237.957 129.098C236.142 135.658 234.605 140.543 233.348 143.893C232.231 147.243 230.695 150.174 228.879 152.827C227.064 155.479 224.689 157.572 221.756 158.968C219.941 159.806 218.125 160.224 216.309 160.224C211.84 160.224 208.348 157.712 208.348 154.362C208.348 151.71 209.885 149.337 213.097 147.383C218.125 144.172 221.058 141.241 222.315 136.635C222.734 134.96 222.874 133.843 222.874 133.145C222.874 127.702 219.103 124.073 213.376 124.073C205.974 124.073 199.27 129.377 196.477 139.287C195.918 141.381 195.639 143.475 195.639 145.289C195.639 155.897 203.739 163.714 216.449 163.714C228.74 163.714 239.075 160.922 248.991 148.22C254.019 141.939 258.349 132.727 261.84 120.723L274.969 76.1956C275.947 72.8457 276.366 69.7748 276.366 66.9832ZM245.36 103.414C240.751 109.277 236.421 112.208 232.51 112.208C227.343 112.208 224.969 106.485 224.969 100.902C224.27 78.8477 243.265 54.9791 252.902 55.677C255.555 55.677 257.511 56.7936 258.628 58.8874L248.991 91.2706L247.874 95.0393L245.36 103.414Z" fill="white"/>
<path d="M332.909 120.723C338.915 120.723 344.641 119.327 349.809 116.395C354.977 113.464 358.887 110.393 361.401 107.183C364.055 103.973 365.451 102.158 365.731 101.879L363.636 99.2268L360.842 102.018C354.697 108.3 350.088 112.208 344.641 112.208C341.988 112.208 340.731 110.673 340.731 107.462C340.731 106.346 341.01 104.81 341.429 102.996L356.792 50.9312H335.284L323.412 91.2706C321.876 96.7143 321.038 100.623 320.619 102.856C313.635 108.718 309.027 111.65 306.932 111.65C304.278 111.65 303.021 110.114 303.021 106.904C303.021 104.95 303.58 101.879 304.697 97.6914L318.384 50.9312H296.876L283.188 97.5518C282.211 101.321 281.652 104.81 281.652 108.021C281.652 116.535 285.702 120.723 293.943 120.723C300.228 120.723 309.027 116.675 320.06 108.718C320.06 116.675 324.39 120.723 332.909 120.723Z" fill="white"/>
<path d="M427.153 63.9124C427.153 62.9353 426.874 61.6791 426.315 60.1436C424.639 56.6541 421.147 54.2812 415.98 53.0249C410.812 51.6291 405.924 50.9312 401.594 50.9312C383.857 50.9312 366.538 58.7478 366.538 70.054C366.538 75.7769 371.426 79.6852 381.482 85.9664C391.957 92.6664 396.985 96.5747 396.985 102.716C396.985 111.51 390.142 117.373 382.739 117.373C380.225 117.373 377.572 116.954 374.778 116.256C371.985 115.418 370.588 114.581 370.588 113.743C370.588 113.185 374.639 111.231 376.175 109.975L376.454 109.696C379.667 107.462 382.181 103.973 383.158 100.483C383.577 98.8081 383.717 97.6914 383.717 96.9935C383.717 91.8289 379.806 87.9206 374.22 87.9206C367.376 87.9206 360.114 93.6435 358.019 100.483V100.762C357.6 102.437 357.32 103.833 357.32 105.089C357.32 110.114 359.834 114.023 364.723 116.675C369.611 119.327 375.477 120.723 382.041 120.723C406.622 120.723 418.633 111.371 418.633 99.0872C418.633 91.8289 413.187 87.2227 402.153 79.9644C392.795 73.8227 388.186 70.3332 388.186 64.8895C388.186 58.6082 395.17 54.4207 402.013 54.4207C406.064 54.4207 410.812 55.5374 410.812 57.2124C410.812 57.9103 409.276 59.027 408.717 59.5853C406.064 61.6791 404.388 64.1915 403.55 67.1228C403.131 68.0999 402.991 69.2165 402.991 70.4728C402.991 75.3582 406.483 78.7081 411.65 78.7081C419.052 78.7081 427.153 71.4498 427.153 63.9124Z" fill="white"/>
<path d="M475.325 55.1187H464.57L473.369 25.3875L451.861 25.5271L443.062 55.1187H437.196L435.241 60.9811H441.246L432.308 91.2706C430.073 98.8081 428.956 104.531 428.956 108.439C428.956 116.256 432.447 120.723 441.805 120.723C447.81 120.723 453.956 119.048 459.961 115.558C465.967 112.068 470.436 109.137 473.369 106.485C476.302 103.833 479.934 100.343 484.124 96.156L482.029 93.5039C477.699 97.5518 472.671 101.6 466.945 105.927C461.218 110.114 456.749 112.208 453.537 112.208C450.883 112.208 449.626 110.673 449.626 107.462C449.626 106.346 449.905 104.81 450.324 102.996L462.755 60.9811H473.369L475.325 55.1187Z" fill="white"/>
<path d="M162.372 168.567C161.735 165.111 158.295 162.552 154.091 162.552C148.23 162.552 143.133 167.671 144.153 173.174C145.044 176.374 148.357 178.933 152.434 178.933C158.295 178.933 163.392 174.07 162.372 168.567ZM145.554 235.246C145.554 234.222 145.809 232.814 146.191 231.15L160.206 183.413H140.585L129.755 220.4C127.717 227.311 126.697 232.558 126.697 236.27C126.697 243.309 129.883 247.404 138.419 247.404C143.898 247.404 149.122 246.124 153.836 243.437C158.55 240.749 162.117 237.933 164.411 234.99C166.832 232.046 168.106 230.382 168.361 230.126L166.449 227.695L163.901 230.254C158.295 236.014 154.091 239.597 149.122 239.597C146.701 239.597 145.554 238.189 145.554 235.246Z" fill="white"/>
<path d="M208.924 247.404C214.403 247.404 219.626 246.124 224.341 243.437C229.055 240.749 232.622 237.933 234.916 234.99C237.336 232.046 238.61 230.382 238.865 230.126L236.954 227.695L234.406 230.254C228.8 236.014 224.595 239.597 219.626 239.597C217.715 239.597 216.696 238.445 216.696 236.014C216.696 232.942 218.225 227.951 221.155 220.144C225.36 208.241 227.526 201.586 227.526 195.059C227.526 194.291 227.398 193.267 227.271 192.116C226.379 186.356 222.429 183.413 215.167 183.413C209.561 183.413 202.299 186.612 193.38 193.011L196.183 183.413H176.562L157.832 247.404H177.454L191.596 199.283C197.457 194.291 201.407 191.732 203.318 191.732C206.376 191.732 207.905 193.395 207.905 196.723C207.905 200.434 206.758 204.402 203.318 214.129C199.623 224.367 197.584 231.15 197.584 236.782C197.584 237.677 197.712 238.701 197.839 240.109C198.986 244.972 202.681 247.404 208.924 247.404Z" fill="white"/>
<path d="M367.086 147.499C376.588 147.499 383.994 142.195 387.209 131.168H365.688C364.71 135.216 363.033 139.403 359.26 139.403C358.561 139.403 357.723 139.124 356.605 138.705C346.264 133.68 334.945 131.168 322.647 131.168C293.441 131.168 264.235 146.662 251.937 175.555C249.422 181.557 248.164 187.141 248.164 192.445C248.164 208.357 259.483 219.245 273.737 219.245C286.594 219.245 295.118 211.986 297.214 202.634C297.354 201.936 297.494 200.82 297.494 199.563C297.494 194.538 294.419 191.188 288.969 191.188C281.423 191.188 273.597 198.447 273.597 205.984C273.597 210.032 276.253 213.103 280.305 214.08C280.724 214.22 280.724 214.359 280.445 214.638C280.026 215.057 278.908 215.336 277.65 215.336C276.392 215.336 274.995 215.057 273.737 214.638C270.383 213.382 266.89 206.543 266.89 197.191C266.89 190.909 268.427 184.07 271.501 176.951C283.1 150.012 301.267 136.332 322.927 136.332C332.15 136.332 341.652 138.705 351.434 143.451C357.024 146.103 362.195 147.499 367.086 147.499ZM287.851 251.488H309.372L340.954 143.73H319.433L287.851 251.488Z" fill="white"/>
<path d="M404.555 206.822C404.555 192.166 394.354 181.697 379.122 181.697C360.816 181.278 339.994 197.749 334.963 216.593C333.985 219.803 333.566 223.013 333.566 226.363C333.566 241.019 343.767 251.488 358.999 251.488C377.305 251.907 398.127 235.436 403.158 216.593C404.136 213.382 404.555 210.172 404.555 206.822ZM356.484 218.128C362.632 196.493 371.716 186.303 379.122 186.303C382.476 186.303 384.432 190.491 384.432 197.609C384.432 203.053 383.454 208.776 381.637 215.057C375.489 236.832 366.405 246.882 358.999 246.882C355.645 246.882 353.689 242.555 353.689 235.715C353.689 230.83 354.667 224.967 356.484 218.128Z" fill="white"/>
<path d="M459.535 251.488C465.544 251.488 471.274 250.092 476.444 247.161C481.615 244.23 485.528 241.159 488.043 237.949C490.698 234.738 492.095 232.924 492.375 232.645L490.279 229.992L487.484 232.784C481.335 239.065 476.724 242.974 471.274 242.974C461.352 242.974 453.946 230.69 453.946 221.478C471.414 217.849 480.357 205.845 480.357 195.516C480.357 187.559 475.187 181.697 466.383 181.697C460.374 181.697 452.408 185.186 442.487 192.166L458.138 138.705H436.618L403.498 251.488H425.019L432.844 224.967C435.36 236.134 444.443 251.488 459.535 251.488ZM460.094 199.563C460.094 207.938 452.269 216.313 434.242 220.222L440.53 199.005C446.958 193.561 451.291 190.77 453.387 190.77C457.16 190.77 460.094 194.538 460.094 199.563Z" fill="white"/>
<path d="M494.434 294.48C506.731 294.48 517.072 291.688 526.994 278.986C532.025 272.705 536.357 263.492 539.85 251.488L560.393 181.697H538.872L523.361 234.18C516.933 239.624 512.601 242.415 510.504 242.415C507.849 242.415 506.592 240.88 506.592 237.67C506.592 235.715 507.151 232.645 508.269 228.457L521.963 181.697H500.443L486.748 228.317C485.77 232.086 485.211 235.576 485.211 238.786C485.211 247.301 489.263 251.488 497.508 251.488C503.657 251.488 511.622 247.999 521.404 241.019L518.33 251.488L515.954 259.863C514.138 266.424 512.601 271.309 511.343 274.659C510.225 278.009 508.688 280.94 506.871 283.592C505.054 286.244 502.679 288.338 499.744 289.734C497.928 290.571 496.111 290.99 494.294 290.99C489.822 290.99 486.329 288.478 486.329 285.128C486.329 282.476 487.866 280.103 491.08 278.149C496.111 274.938 499.046 272.007 500.303 267.401C500.722 265.726 500.862 264.609 500.862 263.911C500.862 258.467 497.089 254.838 491.36 254.838C483.953 254.838 477.246 260.142 474.451 270.053C473.892 272.146 473.612 274.24 473.612 276.055C473.612 286.663 481.717 294.48 494.434 294.48Z" fill="white"/>
<path d="M630 206.822C630 192.166 619.799 181.697 604.567 181.697C586.26 181.278 565.439 197.749 560.408 216.593C559.43 219.803 559.011 223.013 559.011 226.363C559.011 241.019 569.212 251.488 584.444 251.488C602.75 251.907 623.572 235.436 628.603 216.593C629.581 213.382 630 210.172 630 206.822ZM581.928 218.128C588.077 196.493 597.16 186.303 604.567 186.303C607.921 186.303 609.877 190.491 609.877 197.609C609.877 203.053 608.899 208.776 607.082 215.057C600.933 236.832 591.85 246.882 584.444 246.882C581.09 246.882 579.134 242.555 579.134 235.715C579.134 230.83 580.112 224.967 581.928 218.128Z" fill="white"/>
</svg>
