<svg width="705" height="185" viewBox="0 0 705 185" fill="none" xmlns="http://www.w3.org/2000/svg">
<path d="M206.61 22.34C208.062 22.34 209.199 22.758 210.02 23.594C210.856 24.43 211.274 25.662 211.274 27.29V34H209.712V27.444C209.712 26.2413 209.419 25.3247 208.832 24.694C208.26 24.0633 207.446 23.748 206.39 23.748C205.187 23.748 204.241 24.122 203.552 24.87C202.863 25.6033 202.518 26.6227 202.518 27.928V34H200.956V27.444C200.956 26.2413 200.663 25.3247 200.076 24.694C199.504 24.0633 198.683 23.748 197.612 23.748C196.424 23.748 195.478 24.122 194.774 24.87C194.085 25.6033 193.74 26.6227 193.74 27.928V34H192.178V22.428H193.674V24.54C194.085 23.836 194.657 23.2933 195.39 22.912C196.123 22.5307 196.967 22.34 197.92 22.34C198.888 22.34 199.724 22.5453 200.428 22.956C201.147 23.3667 201.682 23.9753 202.034 24.782C202.459 24.0193 203.068 23.4253 203.86 23C204.667 22.56 205.583 22.34 206.61 22.34ZM225.679 22.428L219.893 35.386C219.424 36.4713 218.881 37.2413 218.265 37.696C217.649 38.1507 216.909 38.378 216.043 38.378C215.486 38.378 214.965 38.29 214.481 38.114C213.997 37.938 213.579 37.674 213.227 37.322L213.953 36.156C214.54 36.7427 215.244 37.036 216.065 37.036C216.593 37.036 217.041 36.8893 217.407 36.596C217.789 36.3027 218.141 35.804 218.463 35.1L218.969 33.978L213.799 22.428H215.427L219.783 32.262L224.139 22.428H225.679ZM238.059 34.11C237.12 34.11 236.218 33.978 235.353 33.714C234.502 33.4353 233.835 33.0907 233.351 32.68L234.055 31.448C234.539 31.8293 235.147 32.1447 235.881 32.394C236.614 32.6287 237.377 32.746 238.169 32.746C239.225 32.746 240.002 32.5847 240.501 32.262C241.014 31.9247 241.271 31.4553 241.271 30.854C241.271 30.4287 241.131 30.0987 240.853 29.864C240.574 29.6147 240.222 29.4313 239.797 29.314C239.371 29.182 238.807 29.0573 238.103 28.94C237.164 28.764 236.409 28.588 235.837 28.412C235.265 28.2213 234.773 27.906 234.363 27.466C233.967 27.026 233.769 26.4173 233.769 25.64C233.769 24.672 234.172 23.88 234.979 23.264C235.785 22.648 236.907 22.34 238.345 22.34C239.093 22.34 239.841 22.4427 240.589 22.648C241.337 22.8387 241.953 23.0953 242.437 23.418L241.755 24.672C240.801 24.012 239.665 23.682 238.345 23.682C237.347 23.682 236.592 23.858 236.079 24.21C235.58 24.562 235.331 25.024 235.331 25.596C235.331 26.036 235.47 26.388 235.749 26.652C236.042 26.916 236.401 27.114 236.827 27.246C237.252 27.3633 237.839 27.488 238.587 27.62C239.511 27.796 240.251 27.972 240.809 28.148C241.366 28.324 241.843 28.6247 242.239 29.05C242.635 29.4753 242.833 30.062 242.833 30.81C242.833 31.822 242.407 32.6287 241.557 33.23C240.721 33.8167 239.555 34.11 238.059 34.11ZM252.474 33.296C252.181 33.56 251.814 33.7653 251.374 33.912C250.949 34.044 250.502 34.11 250.032 34.11C248.947 34.11 248.111 33.8167 247.524 33.23C246.938 32.6433 246.644 31.8147 246.644 30.744V23.748H244.576V22.428H246.644V19.898H248.206V22.428H251.726V23.748H248.206V30.656C248.206 31.3453 248.375 31.8733 248.712 32.24C249.064 32.592 249.563 32.768 250.208 32.768C250.531 32.768 250.839 32.7167 251.132 32.614C251.44 32.5113 251.704 32.3647 251.924 32.174L252.474 33.296ZM260.3 34.11C259.185 34.11 258.18 33.8607 257.286 33.362C256.391 32.8487 255.687 32.1447 255.174 31.25C254.66 30.3553 254.404 29.3433 254.404 28.214C254.404 27.0847 254.66 26.0727 255.174 25.178C255.687 24.2833 256.391 23.5867 257.286 23.088C258.18 22.5893 259.185 22.34 260.3 22.34C261.414 22.34 262.419 22.5893 263.314 23.088C264.208 23.5867 264.905 24.2833 265.404 25.178C265.917 26.0727 266.174 27.0847 266.174 28.214C266.174 29.3433 265.917 30.3553 265.404 31.25C264.905 32.1447 264.208 32.8487 263.314 33.362C262.419 33.8607 261.414 34.11 260.3 34.11ZM260.3 32.724C261.121 32.724 261.854 32.5407 262.5 32.174C263.16 31.7927 263.673 31.2573 264.04 30.568C264.406 29.8787 264.59 29.094 264.59 28.214C264.59 27.334 264.406 26.5493 264.04 25.86C263.673 25.1707 263.16 24.6427 262.5 24.276C261.854 23.8947 261.121 23.704 260.3 23.704C259.478 23.704 258.738 23.8947 258.078 24.276C257.432 24.6427 256.919 25.1707 256.538 25.86C256.171 26.5493 255.988 27.334 255.988 28.214C255.988 29.094 256.171 29.8787 256.538 30.568C256.919 31.2573 257.432 31.7927 258.078 32.174C258.738 32.5407 259.478 32.724 260.3 32.724ZM271.519 24.694C271.885 23.9167 272.428 23.33 273.147 22.934C273.88 22.538 274.782 22.34 275.853 22.34V23.858L275.479 23.836C274.261 23.836 273.308 24.21 272.619 24.958C271.929 25.706 271.585 26.7547 271.585 28.104V34H270.023V22.428H271.519V24.694ZM289.559 22.428L283.773 35.386C283.304 36.4713 282.761 37.2413 282.145 37.696C281.529 38.1507 280.788 38.378 279.923 38.378C279.366 38.378 278.845 38.29 278.361 38.114C277.877 37.938 277.459 37.674 277.107 37.322L277.833 36.156C278.42 36.7427 279.124 37.036 279.945 37.036C280.473 37.036 280.92 36.8893 281.287 36.596C281.668 36.3027 282.02 35.804 282.343 35.1L282.849 33.978L277.679 22.428H279.307L283.663 32.262L288.019 22.428H289.559ZM304.799 22.34C305.884 22.34 306.867 22.5893 307.747 23.088C308.627 23.572 309.316 24.2613 309.815 25.156C310.313 26.0507 310.563 27.07 310.563 28.214C310.563 29.358 310.313 30.3773 309.815 31.272C309.316 32.1667 308.627 32.8633 307.747 33.362C306.867 33.8607 305.884 34.11 304.799 34.11C303.831 34.11 302.958 33.9047 302.181 33.494C301.418 33.0833 300.802 32.4893 300.333 31.712V34H298.837V17.676H300.399V24.628C300.883 23.88 301.499 23.3153 302.247 22.934C303.009 22.538 303.86 22.34 304.799 22.34ZM304.689 32.724C305.495 32.724 306.229 32.5407 306.889 32.174C307.549 31.7927 308.062 31.2573 308.429 30.568C308.81 29.8787 309.001 29.094 309.001 28.214C309.001 27.334 308.81 26.5493 308.429 25.86C308.062 25.1707 307.549 24.6427 306.889 24.276C306.229 23.8947 305.495 23.704 304.689 23.704C303.867 23.704 303.127 23.8947 302.467 24.276C301.821 24.6427 301.308 25.1707 300.927 25.86C300.56 26.5493 300.377 27.334 300.377 28.214C300.377 29.094 300.56 29.8787 300.927 30.568C301.308 31.2573 301.821 31.7927 302.467 32.174C303.127 32.5407 303.867 32.724 304.689 32.724ZM323.809 22.428L318.023 35.386C317.553 36.4713 317.011 37.2413 316.395 37.696C315.779 38.1507 315.038 38.378 314.173 38.378C313.615 38.378 313.095 38.29 312.611 38.114C312.127 37.938 311.709 37.674 311.357 37.322L312.083 36.156C312.669 36.7427 313.373 37.036 314.195 37.036C314.723 37.036 315.17 36.8893 315.537 36.596C315.918 36.3027 316.27 35.804 316.593 35.1L317.099 33.978L311.929 22.428H313.557L317.913 32.262L322.269 22.428H323.809ZM350.07 22.428L345.692 34H344.218L340.566 24.518L336.914 34H335.44L331.084 22.428H332.58L336.21 32.262L339.928 22.428H341.27L344.966 32.262L348.64 22.428H350.07ZM357.49 34.11C356.375 34.11 355.371 33.8607 354.476 33.362C353.581 32.8487 352.877 32.1447 352.364 31.25C351.851 30.3553 351.594 29.3433 351.594 28.214C351.594 27.0847 351.851 26.0727 352.364 25.178C352.877 24.2833 353.581 23.5867 354.476 23.088C355.371 22.5893 356.375 22.34 357.49 22.34C358.605 22.34 359.609 22.5893 360.504 23.088C361.399 23.5867 362.095 24.2833 362.594 25.178C363.107 26.0727 363.364 27.0847 363.364 28.214C363.364 29.3433 363.107 30.3553 362.594 31.25C362.095 32.1447 361.399 32.8487 360.504 33.362C359.609 33.8607 358.605 34.11 357.49 34.11ZM357.49 32.724C358.311 32.724 359.045 32.5407 359.69 32.174C360.35 31.7927 360.863 31.2573 361.23 30.568C361.597 29.8787 361.78 29.094 361.78 28.214C361.78 27.334 361.597 26.5493 361.23 25.86C360.863 25.1707 360.35 24.6427 359.69 24.276C359.045 23.8947 358.311 23.704 357.49 23.704C356.669 23.704 355.928 23.8947 355.268 24.276C354.623 24.6427 354.109 25.1707 353.728 25.86C353.361 26.5493 353.178 27.334 353.178 28.214C353.178 29.094 353.361 29.8787 353.728 30.568C354.109 31.2573 354.623 31.7927 355.268 32.174C355.928 32.5407 356.669 32.724 357.49 32.724ZM368.709 24.694C369.076 23.9167 369.618 23.33 370.337 22.934C371.07 22.538 371.972 22.34 373.043 22.34V23.858L372.669 23.836C371.452 23.836 370.498 24.21 369.809 24.958C369.12 25.706 368.775 26.7547 368.775 28.104V34H367.213V22.428H368.709V24.694ZM386.984 17.676V34H385.488V31.712C385.018 32.4893 384.395 33.0833 383.618 33.494C382.855 33.9047 381.99 34.11 381.022 34.11C379.936 34.11 378.954 33.8607 378.074 33.362C377.194 32.8633 376.504 32.1667 376.006 31.272C375.507 30.3773 375.258 29.358 375.258 28.214C375.258 27.07 375.507 26.0507 376.006 25.156C376.504 24.2613 377.194 23.572 378.074 23.088C378.954 22.5893 379.936 22.34 381.022 22.34C381.96 22.34 382.804 22.538 383.552 22.934C384.314 23.3153 384.938 23.88 385.422 24.628V17.676H386.984ZM381.154 32.724C381.96 32.724 382.686 32.5407 383.332 32.174C383.992 31.7927 384.505 31.2573 384.872 30.568C385.253 29.8787 385.444 29.094 385.444 28.214C385.444 27.334 385.253 26.5493 384.872 25.86C384.505 25.1707 383.992 24.6427 383.332 24.276C382.686 23.8947 381.96 23.704 381.154 23.704C380.332 23.704 379.592 23.8947 378.932 24.276C378.286 24.6427 377.773 25.1707 377.392 25.86C377.025 26.5493 376.842 27.334 376.842 28.214C376.842 29.094 377.025 29.8787 377.392 30.568C377.773 31.2573 378.286 31.7927 378.932 32.174C379.592 32.5407 380.332 32.724 381.154 32.724ZM395.096 34.11C394.157 34.11 393.255 33.978 392.39 33.714C391.539 33.4353 390.872 33.0907 390.388 32.68L391.092 31.448C391.576 31.8293 392.185 32.1447 392.918 32.394C393.651 32.6287 394.414 32.746 395.206 32.746C396.262 32.746 397.039 32.5847 397.538 32.262C398.051 31.9247 398.308 31.4553 398.308 30.854C398.308 30.4287 398.169 30.0987 397.89 29.864C397.611 29.6147 397.259 29.4313 396.834 29.314C396.409 29.182 395.844 29.0573 395.14 28.94C394.201 28.764 393.446 28.588 392.874 28.412C392.302 28.2213 391.811 27.906 391.4 27.466C391.004 27.026 390.806 26.4173 390.806 25.64C390.806 24.672 391.209 23.88 392.016 23.264C392.823 22.648 393.945 22.34 395.382 22.34C396.13 22.34 396.878 22.4427 397.626 22.648C398.374 22.8387 398.99 23.0953 399.474 23.418L398.792 24.672C397.839 24.012 396.702 23.682 395.382 23.682C394.385 23.682 393.629 23.858 393.116 24.21C392.617 24.562 392.368 25.024 392.368 25.596C392.368 26.036 392.507 26.388 392.786 26.652C393.079 26.916 393.439 27.114 393.864 27.246C394.289 27.3633 394.876 27.488 395.624 27.62C396.548 27.796 397.289 27.972 397.846 28.148C398.403 28.324 398.88 28.6247 399.276 29.05C399.672 29.4753 399.87 30.062 399.87 30.81C399.87 31.822 399.445 32.6287 398.594 33.23C397.758 33.8167 396.592 34.11 395.096 34.11ZM413.883 22.34C415.394 22.34 416.553 22.7213 417.359 23.484C418.166 24.232 418.569 25.3467 418.569 26.828V34H417.073V32.196C416.721 32.7973 416.201 33.2667 415.511 33.604C414.837 33.9413 414.03 34.11 413.091 34.11C411.801 34.11 410.774 33.802 410.011 33.186C409.249 32.57 408.867 31.756 408.867 30.744C408.867 29.7613 409.219 28.9693 409.923 28.368C410.642 27.7667 411.779 27.466 413.333 27.466H417.007V26.762C417.007 25.7647 416.729 25.0093 416.171 24.496C415.614 23.968 414.8 23.704 413.729 23.704C412.996 23.704 412.292 23.8287 411.617 24.078C410.943 24.3127 410.363 24.6427 409.879 25.068L409.175 23.902C409.762 23.4033 410.466 23.022 411.287 22.758C412.109 22.4793 412.974 22.34 413.883 22.34ZM413.333 32.878C414.213 32.878 414.969 32.68 415.599 32.284C416.23 31.8733 416.699 31.2867 417.007 30.524V28.632H413.377C411.397 28.632 410.407 29.3213 410.407 30.7C410.407 31.3747 410.664 31.91 411.177 32.306C411.691 32.6873 412.409 32.878 413.333 32.878ZM429.368 22.34C430.82 22.34 431.971 22.7653 432.822 23.616C433.687 24.452 434.12 25.6767 434.12 27.29V34H432.558V27.444C432.558 26.2413 432.257 25.3247 431.656 24.694C431.055 24.0633 430.197 23.748 429.082 23.748C427.835 23.748 426.845 24.122 426.112 24.87C425.393 25.6033 425.034 26.6227 425.034 27.928V34H423.472V22.428H424.968V24.562C425.393 23.858 425.98 23.3153 426.728 22.934C427.491 22.538 428.371 22.34 429.368 22.34ZM449.624 17.676V34H448.128V31.712C447.658 32.4893 447.035 33.0833 446.258 33.494C445.495 33.9047 444.63 34.11 443.662 34.11C442.576 34.11 441.594 33.8607 440.714 33.362C439.834 32.8633 439.144 32.1667 438.646 31.272C438.147 30.3773 437.898 29.358 437.898 28.214C437.898 27.07 438.147 26.0507 438.646 25.156C439.144 24.2613 439.834 23.572 440.714 23.088C441.594 22.5893 442.576 22.34 443.662 22.34C444.6 22.34 445.444 22.538 446.192 22.934C446.954 23.3153 447.578 23.88 448.062 24.628V17.676H449.624ZM443.794 32.724C444.6 32.724 445.326 32.5407 445.972 32.174C446.632 31.7927 447.145 31.2573 447.512 30.568C447.893 29.8787 448.084 29.094 448.084 28.214C448.084 27.334 447.893 26.5493 447.512 25.86C447.145 25.1707 446.632 24.6427 445.972 24.276C445.326 23.8947 444.6 23.704 443.794 23.704C442.972 23.704 442.232 23.8947 441.572 24.276C440.926 24.6427 440.413 25.1707 440.032 25.86C439.665 26.5493 439.482 27.334 439.482 28.214C439.482 29.094 439.665 29.8787 440.032 30.568C440.413 31.2573 440.926 31.7927 441.572 32.174C442.232 32.5407 442.972 32.724 443.794 32.724ZM467.014 22.34C468.099 22.34 469.082 22.5893 469.962 23.088C470.842 23.572 471.531 24.2613 472.03 25.156C472.528 26.0507 472.778 27.07 472.778 28.214C472.778 29.3727 472.528 30.3993 472.03 31.294C471.531 32.1887 470.842 32.8853 469.962 33.384C469.096 33.868 468.114 34.11 467.014 34.11C466.075 34.11 465.224 33.9193 464.462 33.538C463.714 33.142 463.098 32.57 462.614 31.822V38.268H461.052V22.428H462.548V24.716C463.017 23.9533 463.633 23.3667 464.396 22.956C465.173 22.5453 466.046 22.34 467.014 22.34ZM466.904 32.724C467.71 32.724 468.444 32.5407 469.104 32.174C469.764 31.7927 470.277 31.2573 470.644 30.568C471.025 29.8787 471.216 29.094 471.216 28.214C471.216 27.334 471.025 26.5567 470.644 25.882C470.277 25.1927 469.764 24.6573 469.104 24.276C468.444 23.8947 467.71 23.704 466.904 23.704C466.082 23.704 465.342 23.8947 464.682 24.276C464.036 24.6573 463.523 25.1927 463.142 25.882C462.775 26.5567 462.592 27.334 462.592 28.214C462.592 29.094 462.775 29.8787 463.142 30.568C463.523 31.2573 464.036 31.7927 464.682 32.174C465.342 32.5407 466.082 32.724 466.904 32.724ZM476.622 22.428H478.184V34H476.622V22.428ZM477.414 19.898C477.091 19.898 476.82 19.788 476.6 19.568C476.38 19.348 476.27 19.084 476.27 18.776C476.27 18.4827 476.38 18.226 476.6 18.006C476.82 17.786 477.091 17.676 477.414 17.676C477.736 17.676 478.008 17.786 478.228 18.006C478.448 18.2113 478.558 18.4607 478.558 18.754C478.558 19.0767 478.448 19.348 478.228 19.568C478.008 19.788 477.736 19.898 477.414 19.898ZM487.986 34.11C486.842 34.11 485.815 33.8607 484.906 33.362C484.011 32.8633 483.307 32.1667 482.794 31.272C482.281 30.3627 482.024 29.3433 482.024 28.214C482.024 27.0847 482.281 26.0727 482.794 25.178C483.307 24.2833 484.011 23.5867 484.906 23.088C485.815 22.5893 486.842 22.34 487.986 22.34C488.983 22.34 489.871 22.538 490.648 22.934C491.44 23.3153 492.063 23.88 492.518 24.628L491.352 25.42C490.971 24.848 490.487 24.4227 489.9 24.144C489.313 23.8507 488.675 23.704 487.986 23.704C487.15 23.704 486.395 23.8947 485.72 24.276C485.06 24.6427 484.539 25.1707 484.158 25.86C483.791 26.5493 483.608 27.334 483.608 28.214C483.608 29.1087 483.791 29.9007 484.158 30.59C484.539 31.2647 485.06 31.7927 485.72 32.174C486.395 32.5407 487.15 32.724 487.986 32.724C488.675 32.724 489.313 32.5847 489.9 32.306C490.487 32.0273 490.971 31.602 491.352 31.03L492.518 31.822C492.063 32.57 491.44 33.142 490.648 33.538C489.856 33.9193 488.969 34.11 487.986 34.11ZM502.469 33.296C502.176 33.56 501.809 33.7653 501.369 33.912C500.944 34.044 500.497 34.11 500.027 34.11C498.942 34.11 498.106 33.8167 497.519 33.23C496.933 32.6433 496.639 31.8147 496.639 30.744V23.748H494.571V22.428H496.639V19.898H498.201V22.428H501.721V23.748H498.201V30.656C498.201 31.3453 498.37 31.8733 498.707 32.24C499.059 32.592 499.558 32.768 500.203 32.768C500.526 32.768 500.834 32.7167 501.127 32.614C501.435 32.5113 501.699 32.3647 501.919 32.174L502.469 33.296ZM516.401 22.428V34H514.905V31.888C514.494 32.592 513.929 33.142 513.211 33.538C512.492 33.9193 511.671 34.11 510.747 34.11C509.236 34.11 508.041 33.692 507.161 32.856C506.295 32.0053 505.863 30.766 505.863 29.138V22.428H507.425V28.984C507.425 30.2013 507.725 31.1253 508.327 31.756C508.928 32.3867 509.786 32.702 510.901 32.702C512.118 32.702 513.079 32.3353 513.783 31.602C514.487 30.854 514.839 29.82 514.839 28.5V22.428H516.401ZM522.932 24.694C523.298 23.9167 523.841 23.33 524.56 22.934C525.293 22.538 526.195 22.34 527.266 22.34V23.858L526.892 23.836C525.674 23.836 524.721 24.21 524.032 24.958C523.342 25.706 522.998 26.7547 522.998 28.104V34H521.436V22.428H522.932V24.694ZM540.722 28.698H531.042C531.13 29.9007 531.592 30.876 532.428 31.624C533.264 32.3573 534.32 32.724 535.596 32.724C536.315 32.724 536.975 32.5993 537.576 32.35C538.178 32.086 538.698 31.7047 539.138 31.206L540.018 32.218C539.505 32.834 538.86 33.3033 538.082 33.626C537.32 33.9487 536.476 34.11 535.552 34.11C534.364 34.11 533.308 33.8607 532.384 33.362C531.475 32.8487 530.764 32.1447 530.25 31.25C529.737 30.3553 529.48 29.3433 529.48 28.214C529.48 27.0847 529.722 26.0727 530.206 25.178C530.705 24.2833 531.38 23.5867 532.23 23.088C533.096 22.5893 534.064 22.34 535.134 22.34C536.205 22.34 537.166 22.5893 538.016 23.088C538.867 23.5867 539.534 24.2833 540.018 25.178C540.502 26.058 540.744 27.07 540.744 28.214L540.722 28.698ZM535.134 23.682C534.02 23.682 533.081 24.0413 532.318 24.76C531.57 25.464 531.145 26.388 531.042 27.532H539.248C539.146 26.388 538.713 25.464 537.95 24.76C537.202 24.0413 536.264 23.682 535.134 23.682ZM547.686 34.11C546.747 34.11 545.845 33.978 544.98 33.714C544.129 33.4353 543.462 33.0907 542.978 32.68L543.682 31.448C544.166 31.8293 544.774 32.1447 545.508 32.394C546.241 32.6287 547.004 32.746 547.796 32.746C548.852 32.746 549.629 32.5847 550.128 32.262C550.641 31.9247 550.898 31.4553 550.898 30.854C550.898 30.4287 550.758 30.0987 550.48 29.864C550.201 29.6147 549.849 29.4313 549.424 29.314C548.998 29.182 548.434 29.0573 547.73 28.94C546.791 28.764 546.036 28.588 545.464 28.412C544.892 28.2213 544.4 27.906 543.99 27.466C543.594 27.026 543.396 26.4173 543.396 25.64C543.396 24.672 543.799 23.88 544.606 23.264C545.412 22.648 546.534 22.34 547.972 22.34C548.72 22.34 549.468 22.4427 550.216 22.648C550.964 22.8387 551.58 23.0953 552.064 23.418L551.382 24.672C550.428 24.012 549.292 23.682 547.972 23.682C546.974 23.682 546.219 23.858 545.706 24.21C545.207 24.562 544.958 25.024 544.958 25.596C544.958 26.036 545.097 26.388 545.376 26.652C545.669 26.916 546.028 27.114 546.454 27.246C546.879 27.3633 547.466 27.488 548.214 27.62C549.138 27.796 549.878 27.972 550.436 28.148C550.993 28.324 551.47 28.6247 551.866 29.05C552.262 29.4753 552.46 30.062 552.46 30.81C552.46 31.822 552.034 32.6287 551.184 33.23C550.348 33.8167 549.182 34.11 547.686 34.11Z" fill="white"/>
<path d="M95.76 46.48C94.92 35.84 83.44 26.88 66.5 26.88C36.96 26.88 25.34 43.4 25.34 56.56C25.34 66.08 30.94 72.94 41.58 83.44C47.04 88.9 50.96 93.52 53.62 97.3C56.28 101.08 57.68 105.42 57.68 110.04C57.68 118.86 55.58 125.44 51.24 129.64C46.9 133.84 41.86 135.94 35.84 135.94C31.36 135.94 27.44 134.82 23.94 132.72C20.44 130.62 18.76 128.1 18.76 125.16C18.76 123.48 20.3 122.22 23.1 121.1C24.36 120.4 25.34 119.84 26.04 119.28L26.32 119C29.54 116.76 32.06 113.26 33.04 109.76C33.46 108.08 33.6 106.96 33.6 106.26C33.6 101.08 29.68 97.16 24.08 97.16C17.22 97.16 9.94 102.9 7.84 109.76V110.04C7.28 112 7 113.96 7 115.92C7 128.24 18.06 140 35.28 140C70.28 140.14 79.38 120.4 79.38 106.4C79.38 99.26 75.74 92.4 71.12 86.8C68.74 84 65.66 80.5 61.88 76.44C51.66 65.38 46.9 59.5 47.04 51.8C47.6 37.66 56.98 30.66 67.62 30.66C75.04 30.66 81.34 34.44 81.34 39.34C81.34 39.9 80.5 40.88 78.68 42.28C75.74 44.38 73.22 47.6 72.24 50.96C71.82 51.94 71.68 53.06 71.68 54.32C71.68 59.22 75.18 62.58 80.36 62.58C87.92 62.58 95.76 55.3 95.76 47.6V46.48ZM133.986 74.2H123.206L132.026 44.38L110.466 44.52L101.646 74.2H95.7661L93.8061 80.08H99.8261L90.8661 110.46C88.6261 118.02 87.5061 123.76 87.5061 127.68C87.5061 135.52 91.0061 140 100.386 140C106.406 140 112.566 138.32 118.586 134.82C124.606 131.32 129.086 128.38 132.026 125.72C134.966 123.06 138.606 119.56 142.806 115.36L140.706 112.7C136.366 116.76 131.326 120.82 125.586 125.16C119.846 129.36 115.366 131.46 112.146 131.46C109.486 131.46 108.226 129.92 108.226 126.7C108.226 125.58 108.506 124.04 108.926 122.22L121.386 80.08H132.026L133.986 74.2ZM201.64 95.2C201.64 80.5 191.42 70 176.16 70C157.82 69.58 136.96 86.1 131.92 105C130.94 108.22 130.52 111.44 130.52 114.8C130.52 129.5 140.74 140 156 140C174.34 140.42 195.2 123.9 200.24 105C201.22 101.78 201.64 98.56 201.64 95.2ZM153.48 106.54C159.64 84.84 168.74 74.62 176.16 74.62C179.52 74.62 181.48 78.82 181.48 85.96C181.48 91.42 180.5 97.16 178.68 103.46C172.52 125.3 163.42 135.38 156 135.38C152.64 135.38 150.68 131.04 150.68 124.18C150.68 119.28 151.66 113.4 153.48 106.54ZM272.651 80.78C272.651 75.04 269.011 70 258.371 70C252.771 70 246.891 72.66 240.731 77.84L242.971 70H221.411L200.831 140H222.391L238.211 86.24C244.231 79.38 248.711 75.74 251.931 75.32C252.351 75.18 252.771 75.18 253.331 75.18C254.031 75.18 254.311 75.32 254.311 75.74C254.311 76.16 253.891 76.86 253.051 77.7C250.951 79.8 249.691 82.04 248.991 84.42C248.571 85.4 248.431 86.52 248.431 87.78C248.431 92.68 251.931 96.04 257.111 96.04C263.691 96.04 270.271 90.72 272.091 84.42C272.511 83.3 272.651 82.04 272.651 80.78ZM276.461 183.12C288.781 183.12 299.141 180.32 309.081 167.58C314.121 161.28 318.461 152.04 321.961 140L342.541 70H320.981L305.441 122.64C299.001 128.1 294.661 130.9 292.561 130.9C289.901 130.9 288.641 129.36 288.641 126.14C288.641 124.18 289.201 121.1 290.321 116.9L304.041 70H282.481L268.761 116.76C267.781 120.54 267.221 124.04 267.221 127.26C267.221 135.8 271.281 140 279.541 140C285.701 140 293.681 136.5 303.481 129.5L300.401 140L298.021 148.4C296.201 154.98 294.661 159.88 293.401 163.24C292.281 166.6 290.741 169.54 288.921 172.2C287.101 174.86 284.721 176.96 281.781 178.36C279.961 179.2 278.141 179.62 276.321 179.62C271.841 179.62 268.341 177.1 268.341 173.74C268.341 171.08 269.881 168.7 273.101 166.74C278.141 163.52 281.081 160.58 282.341 155.96C282.761 154.28 282.901 153.16 282.901 152.46C282.901 147 279.121 143.36 273.381 143.36C265.961 143.36 259.241 148.68 256.441 158.62C255.881 160.72 255.601 162.82 255.601 164.64C255.601 175.28 263.721 183.12 276.461 183.12Z" fill="white"/>
<path d="M442.86 88.48C442.86 83.72 441.46 79.52 438.66 75.74C436 71.96 431.8 70 426.06 70C417.24 70 408.7 73.64 401.98 80.22L404.92 70H383.36L350.04 183.12H371.6L384.76 138.46C387.56 139.44 390.64 140 393.86 140C421.58 140.84 443.42 111.72 442.86 88.48ZM421.86 89.88C422.56 112 403.52 134.96 393.86 134.4C390.36 134.4 388.26 132.86 387.28 129.64L398.76 90.44C404.5 82.6 409.4 78.54 414.3 78.54C419.48 78.54 421.86 84.28 421.86 89.88ZM516.393 95.2C516.393 80.5 506.173 70 490.913 70C472.573 69.58 451.713 86.1 446.673 105C445.693 108.22 445.273 111.44 445.273 114.8C445.273 129.5 455.493 140 470.753 140C489.093 140.42 509.953 123.9 514.993 105C515.973 101.78 516.393 98.56 516.393 95.2ZM468.233 106.54C474.393 84.84 483.493 74.62 490.913 74.62C494.273 74.62 496.233 78.82 496.233 85.96C496.233 91.42 495.253 97.16 493.433 103.46C487.273 125.3 478.173 135.38 470.753 135.38C467.393 135.38 465.433 131.04 465.433 124.18C465.433 119.28 466.413 113.4 468.233 106.54ZM588.805 83.02C588.805 82.04 588.525 80.78 587.965 79.24C586.285 75.74 582.785 73.36 577.605 72.1C572.425 70.7 567.525 70 563.185 70C545.405 70 528.045 77.84 528.045 89.18C528.045 94.92 532.945 98.84 543.025 105.14C553.525 111.86 558.565 115.78 558.565 121.94C558.565 130.76 551.705 136.64 544.285 136.64C541.765 136.64 539.105 136.22 536.305 135.52C533.505 134.68 532.105 133.84 532.105 133C532.105 132.44 536.165 130.48 537.705 129.22L537.985 128.94C541.205 126.7 543.725 123.2 544.705 119.7C545.125 118.02 545.265 116.9 545.265 116.2C545.265 111.02 541.345 107.1 535.745 107.1C528.885 107.1 521.605 112.84 519.505 119.7V119.98C519.085 121.66 518.805 123.06 518.805 124.32C518.805 129.36 521.325 133.28 526.225 135.94C531.125 138.6 537.005 140 543.585 140C568.225 140 580.265 130.62 580.265 118.3C580.265 111.02 574.805 106.4 563.745 99.12C554.365 92.96 549.745 89.46 549.745 84C549.745 77.7 556.745 73.5 563.605 73.5C567.665 73.5 572.425 74.62 572.425 76.3C572.425 77 570.885 78.12 570.325 78.68C567.665 80.78 565.985 83.3 565.145 86.24C564.725 87.22 564.585 88.34 564.585 89.6C564.585 94.5 568.085 97.86 573.265 97.86C580.685 97.86 588.805 90.58 588.805 83.02ZM637.342 74.2H626.562L635.382 44.38L613.822 44.52L605.002 74.2H599.122L597.162 80.08H603.182L594.222 110.46C591.982 118.02 590.862 123.76 590.862 127.68C590.862 135.52 594.362 140 603.742 140C609.762 140 615.922 138.32 621.942 134.82C627.962 131.32 632.442 128.38 635.382 125.72C638.322 123.06 641.962 119.56 646.162 115.36L644.062 112.7C639.722 116.76 634.682 120.82 628.942 125.16C623.202 129.36 618.722 131.46 615.502 131.46C612.842 131.46 611.582 129.92 611.582 126.7C611.582 125.58 611.862 124.04 612.282 122.22L624.742 80.08H635.382L637.342 74.2ZM703.875 83.02C703.875 82.04 703.595 80.78 703.035 79.24C701.355 75.74 697.855 73.36 692.675 72.1C687.495 70.7 682.595 70 678.255 70C660.475 70 643.115 77.84 643.115 89.18C643.115 94.92 648.015 98.84 658.095 105.14C668.595 111.86 673.635 115.78 673.635 121.94C673.635 130.76 666.775 136.64 659.355 136.64C656.835 136.64 654.175 136.22 651.375 135.52C648.575 134.68 647.175 133.84 647.175 133C647.175 132.44 651.235 130.48 652.775 129.22L653.055 128.94C656.275 126.7 658.795 123.2 659.775 119.7C660.195 118.02 660.335 116.9 660.335 116.2C660.335 111.02 656.415 107.1 650.815 107.1C643.955 107.1 636.675 112.84 634.575 119.7V119.98C634.155 121.66 633.875 123.06 633.875 124.32C633.875 129.36 636.395 133.28 641.295 135.94C646.195 138.6 652.075 140 658.655 140C683.295 140 695.335 130.62 695.335 118.3C695.335 111.02 689.875 106.4 678.815 99.12C669.435 92.96 664.815 89.46 664.815 84C664.815 77.7 671.815 73.5 678.675 73.5C682.735 73.5 687.495 74.62 687.495 76.3C687.495 77 685.955 78.12 685.395 78.68C682.735 80.78 681.055 83.3 680.215 86.24C679.795 87.22 679.655 88.34 679.655 89.6C679.655 94.5 683.155 97.86 688.335 97.86C695.755 97.86 703.875 90.58 703.875 83.02Z" fill="white"/>
</svg>
