<svg width="272" height="267" viewBox="0 0 272 267" fill="none" xmlns="http://www.w3.org/2000/svg">
<path d="M103.443 250.625C104.053 250.819 104.575 251.13 105.01 251.559C105.445 251.988 105.747 252.498 105.918 253.089L105.005 253.639C104.692 252.577 104.064 251.897 103.118 251.597C101.796 251.177 100.887 251.75 100.39 253.316L98.3382 259.782L102.242 261.021L101.933 261.997L96.9151 260.405L99.2624 253.008C99.6173 251.89 100.149 251.13 100.859 250.729C101.555 250.334 102.416 250.299 103.443 250.625Z" fill="white"/>
<path d="M82.2078 242.285C82.9215 242.67 83.4787 243.176 83.8795 243.804C84.2753 244.441 84.4832 245.135 84.5033 245.884C84.5233 246.634 84.3386 247.371 83.949 248.094C83.5595 248.817 83.046 249.376 82.4088 249.772C81.7715 250.168 81.0804 250.371 80.3356 250.382C79.5907 250.392 78.8615 250.206 78.1478 249.821C77.4341 249.437 76.8769 248.93 76.4761 248.302C76.0753 247.675 75.8695 246.988 75.8588 246.243C75.8388 245.493 76.0235 244.757 76.4131 244.034C76.8027 243.311 77.3161 242.751 77.9534 242.356C78.5812 241.955 79.2701 241.744 80.02 241.724C80.7649 241.714 81.4941 241.901 82.2078 242.285ZM81.7297 243.173C81.2038 242.889 80.6711 242.754 80.1314 242.766C79.5773 242.782 79.064 242.948 78.5914 243.263C78.1189 243.578 77.7308 244.017 77.4273 244.58C77.1237 245.144 76.9704 245.709 76.9674 246.277C76.9644 246.845 77.1109 247.36 77.407 247.823C77.6887 248.289 78.0924 248.664 78.6183 248.948C79.1442 249.231 79.6842 249.364 80.2383 249.348C80.778 249.336 81.2888 249.175 81.7707 248.865C82.2432 248.55 82.6313 248.111 82.9348 247.548C83.2384 246.984 83.3917 246.418 83.3947 245.851C83.3883 245.278 83.2443 244.758 82.9627 244.291C82.6666 243.829 82.2556 243.456 81.7297 243.173Z" fill="white"/>
<path d="M53.6083 233.368L58.9881 226.896L59.8248 227.592L58.843 228.773C59.3999 228.57 59.9714 228.525 60.5575 228.638C61.1367 228.759 61.6847 229.034 62.2015 229.463C63.0463 230.166 63.5205 230.955 63.6241 231.832C63.7126 232.71 63.3784 233.604 62.6215 234.515L59.502 238.268L58.6285 237.541L61.6763 233.875C62.2423 233.194 62.5037 232.537 62.4605 231.905C62.4174 231.273 62.0842 230.698 61.4608 230.179C60.7799 229.613 60.0722 229.372 59.3375 229.455C58.596 229.546 57.9185 229.96 57.3048 230.699L54.4819 234.095L53.6083 233.368Z" fill="white"/>
<path d="M41.5616 219.255C40.9579 219.417 40.3772 219.392 39.8196 219.179C39.2551 218.958 38.7212 218.551 38.2179 217.957L39.0602 217.243L39.2238 217.461C39.7961 218.137 40.4518 218.49 41.1909 218.521C41.9301 218.551 42.674 218.25 43.4228 217.615L46.6945 214.844L47.4288 215.71L41.0075 221.151L40.3042 220.32L41.5616 219.255Z" fill="white"/>
<path d="M26.9011 202.143C26.3686 201.231 26.2136 200.352 26.4359 199.506C26.6437 198.656 27.2542 197.935 28.2675 197.343L32.4818 194.883L33.0545 195.864L28.9369 198.268C28.1816 198.709 27.7161 199.234 27.5405 199.843C27.3649 200.452 27.4815 201.106 27.8902 201.806C28.3474 202.589 28.9453 203.074 29.684 203.26C30.4081 203.443 31.1801 203.295 31.9999 202.816L35.8135 200.589L36.3863 201.57L29.1183 205.814L28.5698 204.874L29.9101 204.092C29.3119 204.083 28.756 203.913 28.2422 203.583C27.7138 203.249 27.2668 202.769 26.9011 202.143Z" fill="white"/>
<path d="M19.3645 174.863L21.6813 181.511C22.4862 181.163 23.0455 180.612 23.3591 179.859C23.6626 179.109 23.6617 178.296 23.3563 177.42C23.1843 176.926 22.9407 176.503 22.6255 176.15C22.3003 175.8 21.9138 175.534 21.466 175.351L21.9504 174.504C22.4963 174.709 22.9731 175.04 23.3807 175.497C23.7848 175.943 24.0975 176.484 24.3186 177.118C24.603 177.934 24.6845 178.719 24.5632 179.473C24.4283 180.22 24.1151 180.877 23.6235 181.444C23.132 182.011 22.4984 182.429 21.7228 182.7C20.9472 182.97 20.1943 183.046 19.464 182.928C18.7303 182.799 18.0903 182.503 17.5443 182.038C16.9947 181.563 16.5918 180.958 16.3355 180.223C16.0793 179.487 16.0206 178.768 16.1594 178.064C16.2983 177.361 16.617 176.736 17.1156 176.189C17.6041 175.646 18.2412 175.238 19.0268 174.964L19.3645 174.863ZM17.2572 179.901C17.5239 180.667 17.9954 181.225 18.6715 181.577C19.334 181.922 20.0704 181.993 20.8806 181.79L18.9165 176.155C18.1554 176.499 17.6244 177.017 17.3235 177.709C17.009 178.395 16.9869 179.126 17.2572 179.901Z" fill="white"/>
<path d="M9.70248 153.481L19.6623 156.187C20.4948 156.403 21.109 156.706 21.5047 157.098C21.9004 157.49 22.1468 157.996 22.2438 158.618C22.3062 159.019 22.3013 159.403 22.2291 159.77C22.1569 160.138 22.014 160.468 21.8005 160.76L20.8813 160.369C21.2371 159.882 21.369 159.343 21.277 158.753C21.2178 158.373 21.0623 158.068 20.8104 157.838C20.5569 157.597 20.1591 157.4 19.6171 157.247L18.7541 157.009L11.0338 162.018L10.8513 160.848L17.4298 156.616L9.87505 154.588L9.70248 153.481Z" fill="white"/>
<path d="M12.8668 115.354C13.1484 114.656 13.5591 114.152 14.0987 113.844C14.6296 113.524 15.263 113.426 15.999 113.552C16.9453 113.714 17.6159 114.191 18.0107 114.983C18.3969 115.764 18.4732 116.837 18.2396 118.204L17.372 123.282L6.33194 121.396L7.14571 116.633C7.35589 115.403 7.76555 114.494 8.37469 113.905C8.98563 113.306 9.74321 113.084 10.6474 113.238C11.2573 113.343 11.7517 113.584 12.1307 113.963C12.5009 114.329 12.7463 114.793 12.8668 115.354ZM7.4934 120.393L11.4994 121.078L12.1002 117.561C12.2529 116.667 12.2024 115.95 11.9486 115.409C11.6842 114.866 11.2261 114.538 10.5742 114.427C9.92233 114.316 9.38684 114.473 8.96775 114.899C8.53814 115.324 8.24699 115.983 8.09429 116.876L7.4934 120.393ZM17.2749 118.055C17.4437 117.067 17.403 116.292 17.1528 115.73C16.9026 115.167 16.42 114.825 15.705 114.703C14.3276 114.468 13.4683 115.349 13.127 117.347L12.4614 121.242L16.6093 121.951L17.2749 118.055Z" fill="white"/>
<path d="M12.0533 93.6709L12.436 92.6013L23.6139 96.6012L23.2312 97.6708L12.0533 93.6709Z" fill="white"/>
<path d="M30.5372 80.7478C30.1446 81.457 29.6321 82.0084 28.9996 82.4021C28.3579 82.7905 27.662 82.9905 26.9119 83.0019C26.1618 83.0134 25.4275 82.8203 24.7089 82.4225C23.9903 82.0247 23.4368 81.5049 23.0484 80.8631C22.6599 80.2214 22.4647 79.528 22.4625 78.7831C22.4603 78.0382 22.6556 77.3112 23.0482 76.6019C23.4408 75.8927 23.9534 75.3412 24.5858 74.9476C25.2182 74.554 25.9069 74.3562 26.6518 74.354C27.4019 74.3425 28.1362 74.5357 28.8548 74.9335C29.5733 75.3313 30.1269 75.851 30.5153 76.4928C30.9089 77.1252 31.1115 77.8165 31.1229 78.5666C31.1251 79.3115 30.9299 80.0385 30.5372 80.7478ZM29.6553 80.2596C29.9447 79.737 30.0863 79.2058 30.0803 78.666C30.0702 78.1118 29.9104 77.5966 29.6009 77.1205C29.2914 76.6443 28.8568 76.2513 28.2968 75.9413C27.7369 75.6314 27.1731 75.4716 26.6053 75.4621C26.0375 75.4526 25.5208 75.5932 25.055 75.884C24.585 76.1603 24.2054 76.5598 23.9161 77.0824C23.6268 77.605 23.4872 78.1434 23.4974 78.6977C23.5034 79.2374 23.6585 79.75 23.9628 80.2355C24.2722 80.7116 24.7069 81.1046 25.2669 81.4146C25.8268 81.7246 26.3906 81.8843 26.9584 81.8938C27.5313 81.894 28.0528 81.7559 28.5227 81.4797C28.9885 81.1889 29.366 80.7822 29.6553 80.2596Z" fill="white"/>
<path d="M39.915 52.0936L45.5452 56.8835C46.6338 57.8097 47.2101 58.7621 47.2738 59.7406C47.3526 60.718 46.9359 61.7429 46.0235 62.8153C45.5189 63.4083 44.9492 63.8969 44.3143 64.2811C43.6944 64.664 43.0884 64.8907 42.4963 64.9612L42.2115 63.9626C42.7504 63.8889 43.2836 63.6983 43.8112 63.3909C44.3457 63.0754 44.8203 62.6739 45.235 62.1865C45.9262 61.374 46.2433 60.6145 46.1863 59.9078C46.1375 59.208 45.7149 58.5194 44.9187 57.8421L44.1023 57.1474C44.2804 57.7611 44.2884 58.3772 44.1264 58.9956C43.9713 59.6059 43.6692 60.1751 43.2199 60.7032C42.7084 61.3044 42.1119 61.7422 41.4303 62.0166C40.7475 62.2759 40.0495 62.3474 39.3364 62.2308C38.622 62.0992 37.9643 61.7777 37.3631 61.2663C36.7619 60.7548 36.3432 60.1605 36.107 59.4834C35.8777 58.7981 35.8404 58.1012 35.9951 57.3926C36.1498 56.6839 36.4864 56.0249 37.0048 55.4156C37.4679 54.8713 37.9957 54.4731 38.5883 54.221C39.1809 53.9689 39.7984 53.885 40.4408 53.9694L39.21 52.9223L39.915 52.0936ZM42.5247 59.9647C42.9187 59.5016 43.1772 59.0003 43.3001 58.4607C43.4149 57.9141 43.38 57.3873 43.1954 56.88C43.0176 56.3647 42.7012 55.9135 42.2463 55.5264C41.7913 55.1394 41.2993 54.9028 40.7702 54.8169C40.24 54.7159 39.7184 54.7693 39.2055 54.9771C38.6913 55.1699 38.2338 55.5019 37.8329 55.9731C37.4389 56.4362 37.1805 56.9375 37.0575 57.4771C36.9415 58.0086 36.9723 58.532 37.1501 59.0474C37.3348 59.5546 37.6546 60.0018 38.1095 60.3888C38.5645 60.7759 39.0571 61.0199 39.5874 61.1209C40.1246 61.2138 40.6502 61.1639 41.1644 60.9711C41.6773 60.7632 42.1307 60.4278 42.5247 59.9647Z" fill="white"/>
<path d="M68.6278 27.5302C69.304 27.123 70.0098 26.9097 70.7452 26.8903C71.475 26.8618 72.1631 27.0327 72.8094 27.4031C73.4557 27.7734 73.9935 28.315 74.4226 29.0278C74.8518 29.7406 75.0788 30.4692 75.1037 31.2137C75.1286 31.9582 74.9605 32.6508 74.5992 33.2917C74.238 33.9325 73.7193 34.4564 73.0431 34.8636C72.4399 35.2267 71.8192 35.4261 71.1808 35.4619C70.5516 35.4921 69.9449 35.3531 69.3609 35.0448L70.2192 36.4704L69.2871 37.0316L63.1635 26.8607L64.1367 26.2748L66.7446 30.6063C66.7656 29.9587 66.9376 29.3758 67.2606 28.8576C67.5872 28.3248 68.0429 27.8823 68.6278 27.5302ZM72.4546 34.0413C72.9572 33.7387 73.3453 33.3494 73.619 32.8733C73.8872 32.3881 74.0062 31.862 73.9761 31.295C73.9551 30.7224 73.7795 30.162 73.4494 29.6137C73.1193 29.0654 72.7061 28.6481 72.2099 28.3616C71.7229 28.0697 71.205 27.9333 70.6562 27.9524C70.102 27.9624 69.5735 28.1187 69.0709 28.4213C68.5592 28.7294 68.1692 29.126 67.9011 29.6112C67.6365 30.0817 67.5148 30.6033 67.5358 31.1758C67.5659 31.7429 67.746 32.3005 68.0761 32.8488C68.4062 33.3971 68.8148 33.8172 69.3019 34.1092C69.798 34.3956 70.3187 34.5366 70.8638 34.5321C71.4126 34.513 71.9428 34.3494 72.4546 34.0413Z" fill="white"/>
<path d="M93.8861 15.4695L93.2168 25.7685C93.1712 26.6273 92.9958 27.2896 92.6907 27.7554C92.3856 28.2212 91.938 28.5634 91.348 28.7822C90.9679 28.9231 90.5906 28.9948 90.2161 28.9971C89.8415 28.9995 89.4897 28.9252 89.1607 28.7741L89.361 27.7955C89.9094 28.0472 90.4636 28.0692 91.0237 27.8616C91.3837 27.7281 91.6517 27.5149 91.8275 27.2222C92.0134 26.9258 92.1273 26.4967 92.1694 25.9351L92.2307 25.042L85.785 18.4732L86.8951 18.0616L92.3519 23.6661L92.8359 15.8588L93.8861 15.4695Z" fill="white"/>
<path d="M131.891 13.7681L125.655 14.0013L124.424 17.0414L123.193 17.0875L127.891 5.70396L129.058 5.66031L134.593 16.6612L133.346 16.7078L131.891 13.7681ZM131.423 12.8249L128.512 6.91357L126.051 13.0258L131.423 12.8249Z" fill="white"/>
<path d="M158.858 10.2829L157.449 18.5801L156.376 18.398L156.633 16.8837C156.253 17.3385 155.781 17.6641 155.218 17.8605C154.656 18.0464 154.044 18.0832 153.381 17.9707C152.298 17.7868 151.492 17.3415 150.963 16.635C150.446 15.9197 150.287 14.9784 150.485 13.8111L151.302 8.99996L152.422 9.19012L151.624 13.8908C151.475 14.7637 151.578 15.4628 151.933 15.9882C152.287 16.5136 152.864 16.8442 153.663 16.9799C154.536 17.1281 155.27 16.9821 155.864 16.542C156.459 16.0914 156.838 15.3929 156.998 14.4464L157.738 10.0927L158.858 10.2829Z" fill="white"/>
<path d="M183.493 17.3285L180.837 24.2269C180.323 25.5607 179.615 26.4198 178.713 26.8039C177.817 27.2018 176.712 27.1478 175.398 26.6419C174.671 26.3621 174.021 25.9862 173.449 25.5143C172.882 25.0561 172.468 24.5594 172.205 24.024L173.053 23.4246C173.301 23.9087 173.657 24.3488 174.122 24.7449C174.597 25.1448 175.133 25.4598 175.73 25.6897C176.726 26.073 177.547 26.1207 178.195 25.833C178.839 25.5553 179.349 24.9286 179.725 23.9531L180.11 22.9527C179.59 23.3239 179.011 23.5355 178.374 23.5873C177.747 23.643 177.11 23.5463 176.463 23.2972C175.726 23.0135 175.115 22.5956 174.631 22.0432C174.16 21.4848 173.862 20.8498 173.736 20.1383C173.623 19.4207 173.709 18.6936 173.992 17.957C174.276 17.2204 174.698 16.6285 175.259 16.1815C175.83 15.7383 176.475 15.4724 177.195 15.3838C177.915 15.2952 178.648 15.3946 179.395 15.6821C180.062 15.9389 180.612 16.3051 181.046 16.7809C181.48 17.2566 181.764 17.8115 181.897 18.4457L182.477 16.9376L183.493 17.3285ZM176.929 22.3967C177.497 22.6152 178.055 22.6931 178.605 22.6305C179.159 22.5579 179.645 22.3506 180.062 22.0084C180.49 21.67 180.811 21.2222 181.025 20.6647C181.24 20.1073 181.3 19.5647 181.206 19.037C181.126 18.5032 180.903 18.0287 180.537 17.6135C180.185 17.1922 179.72 16.8704 179.143 16.6481C178.575 16.4296 178.017 16.3517 177.467 16.4143C176.927 16.4807 176.443 16.6831 176.016 17.0215C175.598 17.3636 175.282 17.8135 175.068 18.3709C174.853 18.9283 174.786 19.474 174.866 20.0078C174.956 20.5454 175.177 21.0249 175.529 21.4462C175.895 21.8614 176.362 22.1783 176.929 22.3967Z" fill="white"/>
<path d="M205.875 28.9264L201.356 36.026L200.438 35.4418L201.263 34.146C200.736 34.4176 200.175 34.5345 199.579 34.4968C198.989 34.4501 198.411 34.2463 197.844 33.8854C196.917 33.2955 196.347 32.5722 196.134 31.7156C195.935 30.8558 196.154 29.9265 196.79 28.9276L199.41 24.8109L200.368 25.4209L197.808 29.4432C197.333 30.19 197.156 30.8744 197.279 31.4961C197.401 32.1179 197.805 32.6464 198.489 33.0818C199.235 33.5572 199.968 33.7074 200.686 33.5324C201.41 33.3484 202.03 32.8515 202.546 32.0417L204.917 28.3164L205.875 28.9264Z" fill="white"/>
<path d="M215.871 47.2548C215.37 46.7908 214.954 46.2744 214.623 45.7058C214.307 45.1365 214.122 44.6228 214.067 44.1644L215.051 43.8554C215.121 44.2981 215.29 44.7672 215.557 45.2628C215.833 45.7505 216.181 46.1901 216.604 46.5817C217.167 47.1038 217.661 47.4021 218.087 47.4765C218.527 47.5504 218.896 47.427 219.194 47.1062C219.404 46.8794 219.493 46.6345 219.46 46.3715C219.435 46.1008 219.338 45.829 219.169 45.5561C219.007 45.2754 218.768 44.9297 218.45 44.5191C218.037 43.9611 217.721 43.4938 217.503 43.1171C217.292 42.7326 217.186 42.3215 217.184 41.8838C217.191 41.4533 217.386 41.0308 217.77 40.6162C218.249 40.0999 218.856 39.8769 219.59 39.9471C220.325 40.0174 221.076 40.4078 221.843 41.1185C222.241 41.4883 222.59 41.9129 222.887 42.3922C223.192 42.8637 223.393 43.3052 223.492 43.7166L222.508 44.0482C222.326 43.2249 221.883 42.4869 221.179 41.8343C220.647 41.3412 220.157 41.0616 219.709 40.9955C219.269 40.9367 218.908 41.0599 218.625 41.365C218.408 41.5997 218.308 41.8563 218.326 42.1349C218.352 42.4207 218.446 42.704 218.607 42.9847C218.776 43.2575 219.027 43.6141 219.361 44.0543C219.767 44.605 220.075 45.0651 220.285 45.4345C220.495 45.8039 220.601 46.2 220.602 46.6226C220.603 47.0453 220.418 47.4561 220.049 47.855C219.548 48.3948 218.923 48.6148 218.172 48.5149C217.436 48.4145 216.669 47.9945 215.871 47.2548Z" fill="white"/>
<path d="M230.924 62.588C230.641 62.5393 230.358 62.4223 230.077 62.237C229.81 62.0535 229.571 61.8278 229.359 61.5597C228.871 60.9398 228.662 60.3303 228.733 59.731C228.804 59.1318 229.145 58.5912 229.756 58.1091L233.752 54.9593L232.821 53.7782L233.575 53.1839L234.506 54.365L235.951 53.2259L236.654 54.1181L235.209 55.2572L236.794 57.2676L236.04 57.8619L234.455 55.8515L230.51 58.9617C230.116 59.272 229.891 59.6061 229.833 59.9638C229.791 60.3234 229.914 60.6874 230.205 61.056C230.35 61.2403 230.518 61.3931 230.709 61.5144C230.906 61.6441 231.109 61.7289 231.317 61.7687L230.924 62.588Z" fill="white"/>
<path d="M266.591 115.742L253.187 116.928L253.296 118.155L265.488 117.076L266.192 125.029L254.063 126.102L254.174 127.361L267.514 126.181L266.591 115.742ZM261.132 117.044L259.953 117.148L260.74 126.042L261.919 125.937L261.132 117.044ZM255.489 117.527L254.294 117.633L255.085 126.574L256.28 126.468L255.489 117.527Z" fill="white"/>
<path d="M265.443 147.991L264.245 147.781L261.836 161.539L263.033 161.749L265.443 147.991ZM257.862 149.912L256.664 149.702L255.378 157.046L256.576 157.256L257.862 149.912ZM267.662 154.796L253.179 152.259L252.961 153.504L267.444 156.041L267.662 154.796ZM264.022 153.784C261.217 151.994 258.725 148.974 257.815 146.102C257.531 146.329 257.021 146.646 256.688 146.782C257.803 149.787 260.379 152.789 263.475 154.777L264.022 153.784ZM263.624 155.778L263.447 154.658C259.894 155.465 256.459 157.365 254.426 159.884C254.724 160.131 255.125 160.624 255.325 160.968C257.11 158.47 260.412 156.498 263.624 155.778Z" fill="white"/>
<path d="M258.264 181.404L256.927 180.941C256.532 182.663 255.175 186.532 254.614 188.158C254.444 186.474 253.227 184.232 250.978 183.187C247.728 181.677 244.89 184.063 243.541 186.7L244.535 187.674C245.714 185.364 247.862 183.133 250.692 184.448C252.404 185.244 254.037 187.538 253.741 189.923C253.6 190.757 253.042 192.033 252.637 192.868L253.804 193.393C254.227 192.407 254.767 191.017 255.378 189.36C256.387 186.583 257.4 183.719 257.73 182.743C257.836 182.44 258.022 181.962 258.264 181.404ZM251.844 189.941L251.862 189.067C251.05 189.22 250.122 189.282 249.27 189.292L249.253 190.202C250.054 190.186 251.21 190.052 251.844 189.941ZM251.719 191.806L251.715 190.94C250.897 191.107 249.969 191.205 249.111 191.229L249.13 192.138C249.923 192.101 251.071 191.946 251.719 191.806Z" fill="white"/>
<path d="M237.676 217.622L238.553 216.624C237.379 215.434 236.208 214.016 235.34 212.685C233.79 210.324 233.51 208.963 233.992 208.386C234.454 207.834 235.726 207.71 237.273 209.003C239.077 210.512 239.891 214.052 237.633 216.752C235.662 219.108 232.902 219.115 230.939 217.472C228.816 215.696 228.931 213.164 229.889 211.296C230.074 210.95 230.333 210.541 230.625 210.117L229.245 209.922C227.182 213.161 227.483 216.292 230.048 218.437C232.539 220.521 236.094 220.387 238.496 217.515C241.011 214.509 240.673 210.2 238.01 207.972C235.973 206.268 233.808 206.313 232.884 207.417C231.939 208.546 232.419 210.616 234.308 213.47C235.303 214.948 236.533 216.395 237.676 217.622Z" fill="white"/>
<path d="M219 238.703L211.263 227.694L210.255 228.402L217.292 238.417L210.76 243.007L203.76 233.044L202.725 233.771L210.425 244.729L219 238.703ZM215.14 234.63L214.459 233.661L207.154 238.794L207.835 239.763L215.14 234.63ZM211.897 229.986L211.207 229.004L203.862 234.165L204.552 235.147L211.897 229.986Z" fill="white"/>
<path d="M182.62 253.81L182.23 252.743L177.046 254.64L177.437 255.707L182.62 253.81ZM183.116 253.628L180.878 247.513C180.35 246.071 179.752 245.881 178.19 246.453C177.844 246.579 175.545 247.42 175.17 247.558C173.667 248.108 173.569 248.911 174.289 251.39C174.632 251.35 175.184 251.369 175.526 251.465C174.852 249.344 174.829 248.909 175.641 248.612C176.151 248.425 178.105 247.71 178.495 247.567C179.322 247.265 179.531 247.325 179.746 247.911L181.989 254.041L183.116 253.628ZM185.075 258.466L184.684 257.399L179.395 259.335L177.294 253.596L176.152 254.013L178.644 260.82L185.075 258.466ZM189.687 252.586L189.357 251.685L184.669 253.401L184.999 254.302L189.687 252.586ZM191.065 256.631L190.735 255.73L186.077 257.434L186.407 258.336L191.065 256.631ZM188.95 250.573L188.62 249.671L183.932 251.387L184.262 252.289L188.95 250.573ZM191.141 254.371L190.8 253.44L184.82 255.629L185.161 256.56L191.141 254.371ZM187.681 248.737L187.34 247.806L184.23 248.944L183.312 246.435L186.422 245.296L186.075 244.35L181.958 245.857L183.564 250.244L187.681 248.737ZM188.222 248.539L186.363 243.461L185.356 243.829L187.215 248.908L188.222 248.539Z" fill="white"/>
</svg>
