<svg width="470" height="237" viewBox="0 0 470 237" fill="none" xmlns="http://www.w3.org/2000/svg">
<path d="M56.0965 9.80731L55.9875 9.86234L55.9016 9.94909C55.3444 10.5117 54.8742 11.41 54.4624 12.4602C54.0424 13.5316 53.6517 14.8457 53.2898 16.3137C52.5656 19.2513 51.9414 22.8681 51.4311 26.524C50.4114 33.8284 49.8341 41.3805 49.8341 44.1272C49.8341 45.1158 50.1206 45.9284 50.6358 46.5682C51.1418 47.1968 51.8265 47.6072 52.5442 47.879C53.9574 48.4141 55.6722 48.4734 56.9432 48.4734C74.7331 48.4734 90.9944 48.9867 108.78 50.2696L108.807 50.2715H108.834C109.594 50.2715 116.063 50.2716 122.813 50.6556C126.19 50.8478 129.621 51.1351 132.437 51.5634C133.846 51.7777 135.084 52.0249 136.078 52.3079C137.094 52.5973 137.77 52.9017 138.124 53.1874L138.129 53.1915C138.436 53.4352 138.756 53.8856 139.063 54.5877C139.366 55.2794 139.629 56.1547 139.858 57.1785C140.316 59.2261 140.615 61.7776 140.836 64.4501C141.005 66.4797 141.127 68.5574 141.243 70.5188C141.28 71.1382 141.316 71.746 141.352 72.337C141.502 74.7759 141.663 76.9545 141.926 78.4185C142.699 83.1029 144.242 87.5824 145.761 91.9924L145.771 92.0214C147.301 96.4616 148.804 100.832 149.555 105.382C150.167 109.296 150.903 116.834 151.683 124.818C151.871 126.737 152.061 128.681 152.252 130.607C152.745 135.568 153.247 140.401 153.737 144.332C154.223 148.23 154.707 151.33 155.18 152.763C155.519 153.789 156.388 155.638 157.513 157.849C158.647 160.078 160.066 162.727 161.531 165.381C164.454 170.675 167.584 176.032 169.006 178.121C170.555 180.437 172.562 184.674 174.964 189.872C175.239 190.468 175.52 191.075 175.804 191.693C177.993 196.439 180.461 201.792 183.142 207.007C186.17 212.897 189.486 218.645 193.002 223.17C196.498 227.671 200.285 231.086 204.289 232.114L204.466 232.159L204.644 232.119C206.197 231.762 208.113 230.657 210.158 229.239C212.226 227.804 214.519 225.982 216.839 224.104C217.298 223.733 217.758 223.36 218.216 222.987C222.442 219.557 226.613 216.17 229.742 214.59L229.751 214.585L229.76 214.581C230.497 214.183 231.429 213.727 232.478 213.214C232.762 213.074 233.056 212.931 233.356 212.783C234.753 212.096 236.288 211.325 237.754 210.495C239.218 209.667 240.635 208.767 241.792 207.817C242.935 206.877 243.894 205.832 244.346 204.692L244.418 204.51L244.392 204.316C244.175 202.707 243.186 200.942 241.897 199.181C240.592 197.399 238.903 195.524 237.166 193.69C236.387 192.867 235.607 192.06 234.842 191.271C233.881 190.278 232.945 189.311 232.071 188.372C230.509 186.694 229.24 185.205 228.523 183.997L228.519 183.991C227.239 181.883 226.02 179.878 224.858 177.967C214.112 160.292 208.202 150.572 203.632 140.592C198.573 129.544 195.153 118.17 188.664 95.2982C187.536 91.2471 186.429 84.2364 185.331 75.8778C184.465 69.2796 183.608 61.8772 182.753 54.4858C182.526 52.5287 182.3 50.5723 182.074 48.6319C180.993 39.3702 179.91 30.4686 178.81 23.6071C178.26 20.178 177.704 17.241 177.137 15.0162C176.854 13.9047 176.564 12.9541 176.265 12.2016C175.978 11.4795 175.648 10.848 175.241 10.4559C174.603 9.81508 173.764 9.44701 172.927 9.23589C172.084 9.02293 171.191 8.9562 170.391 8.9562C167.184 8.9562 164.045 9.1505 160.964 9.34296L160.881 9.34817C157.821 9.53932 154.82 9.72681 151.822 9.72681C145.8 9.72681 139.833 8.90647 133.774 8.07362L133.705 8.06413C127.64 7.23033 121.485 6.38747 115.193 6.38747C107.36 6.38747 100.689 7.55518 94.7326 8.71312C94.1077 8.8346 93.4914 8.95578 92.8832 9.07539C87.6688 10.1008 83.0391 11.0112 78.5644 11.0112C75.4566 11.0112 72.4008 10.5091 69.3079 9.99389L69.1849 9.97341C66.153 9.46828 63.0794 8.9562 59.9956 8.9562C58.6326 8.9562 57.2399 9.22996 56.0965 9.80731ZM98.5936 72.107L98.5163 71.912L98.3491 71.7854C98.2094 71.6796 98.0419 71.6211 97.9545 71.5918C97.8389 71.5531 97.7016 71.5154 97.5517 71.4787C97.25 71.4049 96.8511 71.3237 96.3754 71.2366C95.4214 71.062 94.118 70.8568 92.5788 70.6336C89.498 70.1868 85.4453 69.6642 81.2928 69.1662C73.0178 68.1736 64.2492 67.2664 62.0306 67.2664H62.0023C61.3835 67.2664 60.6241 67.2663 59.8858 67.4083C59.124 67.5549 58.3305 67.8614 57.6821 68.5162C57.5326 68.6672 57.44 68.8699 57.3884 68.9893C57.3229 69.1408 57.2564 69.3257 57.1891 69.533C57.0538 69.9495 56.8989 70.5082 56.728 71.1812C56.3855 72.5302 55.9678 74.3839 55.5021 76.5784C54.5703 80.9696 53.4403 86.7558 52.3271 92.6658C50.1038 104.469 47.94 116.806 47.5531 119.536C47.0482 122.701 46.8991 125.993 46.7517 129.245C46.7113 130.136 46.6711 131.024 46.6238 131.905C46.4017 136.037 46.0233 140.062 44.7853 143.813C43.0351 148.987 37.0428 159.83 30.4855 170.534C23.937 181.224 16.911 191.637 13.141 195.954C12.4714 196.691 11.4841 197.675 10.3424 198.812L10.2702 198.884C9.10262 200.047 7.79082 201.355 6.54139 202.682C5.29362 204.006 4.09452 205.363 3.15508 206.625C2.23317 207.864 1.49326 209.099 1.26634 210.168L1.22784 210.35L1.27833 210.528C1.3338 210.724 1.44937 210.892 1.52838 210.998C1.62141 211.123 1.73803 211.257 1.86824 211.396C2.12972 211.675 2.48555 212.015 2.9138 212.401C3.7727 213.177 4.96424 214.177 6.37287 215.318C9.19252 217.602 12.9125 220.473 16.6523 223.286C20.3924 226.098 24.1586 228.856 27.0717 230.913C28.5273 231.94 29.7757 232.797 30.7036 233.398C31.1663 233.698 31.5587 233.941 31.8617 234.111C32.012 234.195 32.1526 234.269 32.2756 234.323C32.3369 234.35 32.4049 234.378 32.4749 234.4C32.5336 234.418 32.6455 234.45 32.7784 234.45C33.659 234.45 34.5778 234.059 35.4885 233.46C36.4113 232.853 37.4017 231.981 38.4425 230.904C40.5251 228.747 42.8843 225.687 45.3951 222.04C50.4206 214.74 56.1184 204.992 61.5114 195.177C72.2673 175.6 81.8544 155.669 82.5493 154.133L84.8277 149.531C84.8285 149.529 84.8293 149.528 84.8301 149.526C88.4272 142.519 91.2415 133.725 93.0301 125.985C96.6025 111.296 99.4094 90.175 99.4094 76.2363C99.4094 74.8505 99.1345 73.4726 98.5936 72.107ZM374.682 198.841L374.66 198.93V199.022C374.66 199.248 374.728 199.485 374.792 199.674C374.864 199.883 374.963 200.121 375.081 200.378C375.318 200.892 375.652 201.527 376.047 202.237C376.839 203.657 377.904 205.419 379.002 207.188C380.102 208.958 381.241 210.744 382.184 212.214C382.446 212.623 382.692 213.007 382.918 213.359C383.499 214.262 383.944 214.955 384.174 215.326C384.763 216.402 385.282 217.916 385.799 219.678C386.058 220.558 386.311 221.484 386.571 222.434C386.831 223.381 387.097 224.351 387.377 225.306C387.937 227.21 388.563 229.09 389.335 230.666C390.099 232.226 391.053 233.587 392.32 234.342C393.087 234.806 394.21 235.096 395.418 235.291C396.65 235.49 398.065 235.604 399.477 235.669C401.685 235.77 403.94 235.753 405.536 235.74C405.979 235.737 406.371 235.734 406.698 235.734C417.169 235.734 426.11 234.96 436.316 233.414L436.326 233.412L436.336 233.41C437.327 233.234 438.347 233.084 439.388 232.932L439.628 232.896C440.748 232.732 441.89 232.561 443.02 232.35C445.275 231.927 447.525 231.331 449.533 230.25L449.538 230.247C455.627 226.905 459.146 220.852 461.304 214.283C463.462 207.712 464.295 200.509 464.93 194.737L464.931 194.731C465.237 191.713 465.639 188.536 466.051 185.285C466.994 177.832 467.987 169.991 467.987 162.803C467.987 158.147 467.603 153.625 467.222 149.139L467.221 149.125C466.839 144.625 466.461 140.161 466.461 135.574C466.461 129.838 467.029 124.16 467.602 118.438L467.604 118.419C468.175 112.716 468.75 106.97 468.75 101.153C468.75 88.6741 468.05 76.1344 467.35 63.6193L467.35 63.6077C466.65 51.0816 465.952 38.58 465.952 26.1461C465.952 24.9073 466.111 23.1905 466.296 21.199C466.335 20.784 466.374 20.3572 466.414 19.9203C466.641 17.4143 466.859 14.6173 466.81 12.0041C466.762 9.40891 466.451 6.90064 465.558 5.01785C465.106 4.06568 464.492 3.24431 463.66 2.66207C462.823 2.07517 461.81 1.76375 460.623 1.76375C450.158 1.76375 439.508 2.79415 428.901 3.82039L428.882 3.82222C418.256 4.85036 407.673 5.87372 397.286 5.87372C392.692 5.87372 388.332 4.74566 383.899 3.58627L383.766 3.55148C379.406 2.41107 374.967 1.25 370.323 1.25C365.937 1.25 361.625 1.96486 357.385 2.66798L357.355 2.67291C353.084 3.38102 348.884 4.07561 344.632 4.07561C343.517 4.07561 341.644 4.02928 339.273 3.97062C334.262 3.84666 327.027 3.66767 320.013 3.75458C314.822 3.8189 309.688 4.02799 305.555 4.51422C303.49 4.75718 301.653 5.07168 300.176 5.47929C298.731 5.87795 297.507 6.3967 296.787 7.12349C296.571 7.34177 296.404 7.62963 296.269 7.92132C296.13 8.22241 296.003 8.57728 295.886 8.96845C295.651 9.75087 295.439 10.7337 295.246 11.8365C294.859 14.0454 294.539 16.8059 294.284 19.5587C293.777 25.0322 293.52 30.5527 293.517 31.779C293.291 36.5865 293.266 41.4441 293.241 46.289C293.238 46.8944 293.235 47.4995 293.231 48.1044C293.199 53.5629 293.136 58.9997 292.756 64.3673L292.756 64.3752C292.544 67.8954 292.112 71.3691 291.678 74.863C291.593 75.5464 291.508 76.2307 291.424 76.9162C290.915 81.0938 290.465 85.3066 290.465 89.5937C290.465 94.6556 291.171 99.6441 291.868 104.572L291.871 104.597C292.572 109.551 293.263 114.444 293.263 119.391C293.263 130.037 292.817 135.678 291.472 141.142C290.472 145.208 288.976 149.176 286.767 155.034C285.988 157.099 285.121 159.399 284.155 162.022C283.518 163.631 282.73 166.145 281.841 168.98C281.296 170.717 280.714 172.573 280.106 174.416C278.477 179.349 276.664 184.183 274.832 186.772L274.83 186.776C274.107 187.81 272.641 189.404 270.796 191.307C269.818 192.316 268.762 193.384 267.674 194.483C266.708 195.46 265.716 196.462 264.733 197.471C262.665 199.591 260.674 201.697 259.198 203.49C258.461 204.385 257.837 205.219 257.394 205.95C256.972 206.645 256.634 207.37 256.634 208.012C256.634 208.927 256.933 209.902 257.608 210.588C260.003 213.116 262.538 215.274 265.04 217.405C265.496 217.792 265.951 218.179 266.403 218.567C269.345 221.091 272.218 223.68 274.837 226.949C275.877 228.518 277.207 230.139 278.841 231.239C279.702 231.819 280.608 232.138 281.549 232.138C282.045 232.138 282.551 231.95 283.015 231.705C283.492 231.454 283.996 231.104 284.507 230.699C285.53 229.888 286.647 228.799 287.721 227.665C289.351 225.946 290.935 224.066 291.982 222.823C292.314 222.43 292.591 222.101 292.799 221.861L292.809 221.85L292.818 221.839C293.266 221.279 293.879 220.528 294.622 219.619C297.436 216.171 302.103 210.453 306.665 204.318C309.55 200.44 312.402 196.383 314.727 192.612C317.043 188.856 318.87 185.331 319.663 182.529L319.665 182.522L319.667 182.514C319.946 181.444 320.223 180.342 320.505 179.223C321.518 175.204 322.587 170.964 323.965 167.184C324.579 165.699 325.286 164.538 326.178 163.75C327.052 162.978 328.145 162.525 329.624 162.525C332.778 162.525 335.934 162.716 339.118 162.909L339.129 162.91C342.301 163.102 345.5 163.296 348.702 163.296C355.331 163.296 361.952 162.464 368.55 161.635L368.668 161.62C375.32 160.784 381.951 159.956 388.638 159.956C391.669 159.956 400.911 160.212 409.378 161.553C413.619 162.224 417.613 163.159 420.528 164.444C421.987 165.087 423.129 165.798 423.898 166.57C424.657 167.331 425.025 168.122 425.025 168.968C425.025 171.09 424.587 175.538 423.828 179.851C423.449 182.003 422.994 184.1 422.48 185.841C421.958 187.612 421.405 188.905 420.877 189.549C420.404 190.098 419.493 190.629 418.111 191.108C416.747 191.582 415.021 191.974 413.029 192.306C409.046 192.969 404.103 193.377 399.075 193.746C398.313 193.802 397.549 193.858 396.786 193.913C392.533 194.219 388.323 194.523 384.732 194.958C382.613 195.214 380.689 195.518 379.086 195.9C377.5 196.278 376.153 196.749 375.24 197.376L375.005 197.537L374.937 197.814L374.682 198.841ZM398.865 39.9948L398.87 39.9944C401.505 39.7897 404.143 39.4229 406.771 39.0576C407.47 38.9605 408.168 38.8636 408.864 38.7698C412.197 38.3211 415.526 37.9416 418.907 37.9416C420.565 37.9416 421.736 38.6225 422.607 39.7462C423.504 40.9043 424.095 42.5536 424.467 44.4633C425.095 47.6909 425.061 51.4132 425.035 54.226C425.03 54.747 425.025 55.2368 425.025 55.6865C425.025 57.1632 424.778 58.2672 424.237 59.0481C423.715 59.8005 422.843 60.3624 421.336 60.5966L421.323 60.5985L421.311 60.6008C409.154 62.9028 393.684 64.1839 381.261 64.1839C375.982 64.1839 370.694 63.4223 365.343 62.6504L365.316 62.6465C359.992 61.8785 354.606 61.1014 349.211 61.1014C348.378 61.1014 347.184 61.1839 345.817 61.2782C345.254 61.3171 344.661 61.3579 344.053 61.3959C341.937 61.528 339.57 61.63 337.356 61.5198C335.126 61.4087 333.132 61.0849 331.718 60.4151C331.02 60.0841 330.497 59.6844 330.15 59.2167C329.811 58.7587 329.611 58.1987 329.611 57.4846C329.611 53.9501 329.676 51.1402 329.986 48.8978C330.296 46.6558 330.841 45.0653 331.741 43.9151C332.628 42.7813 333.926 41.9924 335.914 41.4866C337.92 40.9764 340.579 40.7672 344.123 40.7672C348.116 40.7672 352.126 40.7924 356.147 40.8177C370.286 40.9067 384.579 40.9966 398.865 39.9948ZM329.373 122.439L329.345 122.413L329.314 122.389C329.01 122.159 328.816 121.786 328.707 121.236C328.596 120.679 328.594 120.048 328.594 119.391C328.594 115.327 329.098 110.285 330.332 106.539C330.55 105.96 331.233 105.312 332.558 104.664C333.857 104.029 335.625 103.465 337.751 102.971C341.997 101.984 347.534 101.306 353.277 100.841C364.756 99.9124 376.941 99.848 381.007 99.848C386.81 99.848 392.604 100.295 398.32 100.737C400.085 100.873 401.842 101.009 403.589 101.13C404.162 101.175 405.177 101.161 406.432 101.145C407.08 101.136 407.793 101.127 408.54 101.124C410.785 101.116 413.446 101.165 415.994 101.449C418.557 101.735 420.935 102.252 422.651 103.143C424.345 104.022 425.279 105.192 425.279 106.804V121.189C425.279 122.702 424.824 123.698 424.128 124.325C423.419 124.964 422.352 125.32 420.942 125.32C414.23 125.32 407.451 124.872 400.642 124.422L400.63 124.421C393.834 123.972 387.009 123.522 380.243 123.522C379.241 123.522 377.074 123.579 374.181 123.655C372.999 123.686 371.695 123.72 370.3 123.755C365.481 123.875 359.549 124.003 353.69 124.035C347.828 124.067 342.052 124.003 337.542 123.74C335.284 123.608 333.362 123.427 331.911 123.187C331.185 123.068 330.595 122.936 330.148 122.795C329.678 122.646 329.452 122.513 329.373 122.439Z" stroke="#3E3E3E" stroke-width="1.5"/>
</svg>
