<svg width="497" height="256" viewBox="0 0 497 256" fill="none" xmlns="http://www.w3.org/2000/svg">
<mask id="path-1-outside-1_5_50" maskUnits="userSpaceOnUse" x="0" y="0" width="497" height="256" fill="black">
<rect fill="white" width="497" height="256"/>
<path d="M138.776 68.7503C139.031 66.3995 139.542 63.7874 140.052 61.4366L141.583 59.8694C142.859 59.6082 144.135 59.347 145.411 59.347C151.79 59.347 158.169 60.3918 164.804 60.3918C171.949 60.3918 178.839 58.041 185.983 58.041C198.997 58.041 211.756 60.653 225.025 60.653C229.873 60.653 236.253 61.959 236.253 54.9066C236.253 21.9952 231.149 21.4728 200.273 21.4728C188.28 21.4728 176.797 24.8684 165.314 24.8684C160.466 24.8684 147.197 23.5624 142.859 21.4728C140.052 17.0324 142.604 9.71877 140.562 4.49474C135.204 1.36033 116.066 2.14392 111.472 2.14392C108.921 2.14392 104.072 1.36033 102.031 3.44993C101.521 4.49474 101.01 5.80074 101.01 6.84555C101.01 11.8084 104.072 23.04 96.6722 23.04C89.7825 23.04 83.148 21.9952 76.2582 21.9952C57.8857 21.9952 29.0509 22.7788 11.1887 24.346C7.36107 24.6072 6.85072 28.2641 6.85072 31.6597C6.85072 36.8837 6.85072 59.0858 13.2301 59.6082C17.0577 60.1306 21.1405 59.8694 24.9681 59.8694C32.8785 59.8694 41.0441 60.3918 48.9546 60.3918C64.7754 60.3918 80.5962 56.9962 96.6722 56.9962C97.9481 56.9962 99.224 57.2574 100.5 57.5186L101.776 59.6082C101.521 62.7426 101.265 66.6606 99.224 69.2727C93.355 71.1011 84.679 71.1011 78.5548 71.1011C68.603 71.1011 58.9064 68.4891 48.9546 68.4891C43.3407 68.4891 27.5199 65.877 27.5199 75.0191C27.5199 83.1163 28.7958 90.9524 28.7958 99.0496C28.7958 105.841 28.0302 112.371 28.0302 119.162C27.775 131.439 28.0302 143.715 28.0302 155.73C28.0302 159.387 27.775 169.574 32.3682 170.619C37.7269 171.664 43.8511 171.925 49.2097 171.925C54.8236 171.925 67.072 170.358 73.1962 172.186C67.3271 179.5 36.1958 200.918 26.7544 205.359C20.8853 208.232 5.83002 212.672 2.0024 216.068V216.851C1.74723 220.769 21.906 247.934 26.7544 247.934C30.8371 247.934 42.0648 241.927 44.1062 240.882C51.5063 236.964 59.1615 232.523 66.3064 228.083C77.5341 221.031 89.7825 201.179 99.7343 197C102.286 208.493 99.224 247.412 102.796 252.375C104.327 254.464 107.134 253.942 109.431 253.942C113.769 253.942 133.162 253.942 136.735 250.285C140.307 242.188 136.224 204.314 142.349 195.694C148.728 195.694 196.956 246.367 216.604 246.367C221.197 246.367 240.08 220.508 240.08 216.068C240.08 212.672 223.239 206.665 220.177 205.359C200.528 197.784 185.728 188.903 172.204 171.925C173.48 171.402 175.011 171.402 176.287 171.402C184.963 171.402 193.639 172.97 202.57 172.97C204.866 172.97 211.501 173.231 213.287 171.664C215.584 169.574 217.115 154.163 217.115 150.506C217.115 136.924 213.797 123.603 213.797 109.759C213.797 97.4824 216.86 85.7283 216.86 73.9743C216.86 68.4891 208.694 69.5339 205.122 69.5339C189.556 69.5339 174.245 71.3623 158.68 71.3623C152.555 71.3623 145.921 72.1459 140.052 70.5787L138.776 68.7503ZM155.362 97.2212C159.19 97.2212 178.583 96.6988 180.37 99.8332C180.37 106.102 177.563 107.408 172.204 107.408C167.611 107.408 139.542 105.58 137.5 102.968C137.5 101.4 138.266 99.8332 139.031 98.5272C142.349 96.6988 151.28 97.2212 155.362 97.2212ZM64.265 104.012C63.7547 98.0048 67.072 97.7436 72.6858 97.7436H94.886C96.6722 97.7436 101.265 98.266 102.031 100.094C102.031 102.968 101.265 107.408 98.2033 108.192C90.8032 110.281 79.5755 110.02 71.9203 110.02C69.6237 110.02 65.7961 110.02 64.5202 107.93L64.265 104.012ZM158.68 144.76C153.321 144.76 139.797 146.588 139.797 138.752V135.618C142.349 131.961 162.762 131.961 167.611 131.961C175.776 131.961 176.032 134.312 177.052 142.148C176.287 144.76 172.459 144.76 170.163 144.76H158.68ZM93.355 133.789C95.9067 133.789 98.4585 133.789 99.9895 136.14L100.245 139.275L99.9895 142.409C98.4585 145.021 95.9067 144.499 93.355 144.499C90.548 144.499 70.8996 143.454 69.1133 142.67C66.8168 141.625 65.5409 138.491 65.0306 136.14C66.0513 133.789 69.1133 133.789 71.4099 133.789H93.355Z"/>
<path d="M284.481 24.0848C277.081 24.0848 262.791 23.5624 262.791 34.0105V54.3842C262.791 57.2574 264.067 61.4366 267.639 61.4366C274.529 61.4366 281.419 60.1306 288.564 60.1306C321.736 60.1306 355.164 64.0486 388.592 64.0486C406.965 64.0486 425.082 61.6978 443.455 61.6978C456.724 61.6978 470.248 63.0038 483.517 63.0038C487.855 63.0038 488.365 59.0858 488.365 55.6902C488.365 28.0029 491.428 25.652 465.655 25.652C455.958 25.652 446.262 26.4357 436.565 26.4357C431.206 26.4357 425.848 25.1296 420.234 25.1296C415.641 25.1296 399.565 26.4357 396.247 24.6072C395.482 23.5624 395.227 22.5176 395.227 21.4728C395.227 17.5548 396.758 8.15155 394.971 5.27835C392.675 3.97234 390.378 4.23354 387.827 4.23354C382.468 4.23354 358.482 5.01715 356.95 6.32315C356.44 7.36796 356.185 8.41277 356.185 9.45756C356.185 22.2564 362.054 26.1744 345.468 26.1744C332.709 26.1744 319.95 24.0848 307.191 24.0848H284.481ZM289.84 135.618C289.84 159.387 285.502 163.828 310.764 163.828C319.95 163.828 353.378 161.215 356.695 164.611C357.206 165.134 357.716 167.746 357.716 168.529C357.716 175.32 356.95 182.112 356.695 188.903C356.44 194.127 357.461 200.657 356.44 206.142C354.399 216.329 326.585 209.015 321.481 216.068C321.226 216.851 320.971 217.635 320.971 218.419C320.971 222.859 330.412 246.628 333.474 249.502C337.047 252.636 343.426 252.636 347.764 252.636C399.82 252.636 394.971 229.65 395.482 184.462C395.482 181.589 394.716 170.88 397.268 168.268C399.054 166.44 432.482 164.872 439.372 164.872C462.082 164.872 464.889 169.574 464.889 142.409C464.889 130.655 462.082 119.162 462.082 107.669C462.082 100.094 463.613 92.5196 463.613 84.9447C463.613 75.2803 442.179 76.8475 437.331 76.3251C431.717 75.8027 425.592 75.0191 419.979 75.0191C402.882 75.0191 385.53 78.1535 368.433 78.1535C355.93 78.1535 343.681 75.5415 330.923 75.5415C321.226 75.5415 311.529 76.3251 301.833 77.3699C299.281 77.6311 293.412 77.8923 291.881 79.9819C289.84 82.8551 289.84 103.49 289.84 104.274V135.618ZM326.329 127.521C326.329 123.08 326.84 108.453 332.709 108.453C340.109 108.453 347.254 110.804 354.399 110.804C362.309 110.804 370.22 108.453 378.13 108.453C386.04 108.453 394.206 109.236 402.116 109.236C406.965 109.236 412.068 108.453 416.917 108.453C420.489 108.453 425.848 107.669 425.848 112.632C425.848 134.051 419.979 132.222 401.096 132.222C392.165 132.222 383.489 130.916 374.558 130.916C361.799 130.916 348.785 132.222 336.026 132.222C332.964 132.222 326.329 132.222 326.329 127.521ZM462.593 242.71C466.42 242.971 493.469 228.344 495 224.687C493.979 217.635 455.193 172.447 449.579 172.447C444.475 172.447 417.682 187.074 417.682 191.776C417.682 194.127 428.399 202.224 430.696 204.053C440.648 212.15 460.041 241.665 461.572 242.71H462.593ZM328.881 187.336C328.881 180.806 302.853 174.276 297.495 174.276C296.219 174.276 294.943 174.537 293.922 175.059C291.371 176.626 287.798 182.895 286.012 185.768C278.357 198.045 269.17 207.187 260.239 218.157C259.219 219.202 258.453 220.508 258.453 222.075C258.453 227.299 276.06 239.053 281.164 239.053C294.943 239.053 328.881 201.179 328.881 187.336Z"/>
</mask>
<path d="M138.776 68.7503C139.031 66.3995 139.542 63.7874 140.052 61.4366L141.583 59.8694C142.859 59.6082 144.135 59.347 145.411 59.347C151.79 59.347 158.169 60.3918 164.804 60.3918C171.949 60.3918 178.839 58.041 185.983 58.041C198.997 58.041 211.756 60.653 225.025 60.653C229.873 60.653 236.253 61.959 236.253 54.9066C236.253 21.9952 231.149 21.4728 200.273 21.4728C188.28 21.4728 176.797 24.8684 165.314 24.8684C160.466 24.8684 147.197 23.5624 142.859 21.4728C140.052 17.0324 142.604 9.71877 140.562 4.49474C135.204 1.36033 116.066 2.14392 111.472 2.14392C108.921 2.14392 104.072 1.36033 102.031 3.44993C101.521 4.49474 101.01 5.80074 101.01 6.84555C101.01 11.8084 104.072 23.04 96.6722 23.04C89.7825 23.04 83.148 21.9952 76.2582 21.9952C57.8857 21.9952 29.0509 22.7788 11.1887 24.346C7.36107 24.6072 6.85072 28.2641 6.85072 31.6597C6.85072 36.8837 6.85072 59.0858 13.2301 59.6082C17.0577 60.1306 21.1405 59.8694 24.9681 59.8694C32.8785 59.8694 41.0441 60.3918 48.9546 60.3918C64.7754 60.3918 80.5962 56.9962 96.6722 56.9962C97.9481 56.9962 99.224 57.2574 100.5 57.5186L101.776 59.6082C101.521 62.7426 101.265 66.6606 99.224 69.2727C93.355 71.1011 84.679 71.1011 78.5548 71.1011C68.603 71.1011 58.9064 68.4891 48.9546 68.4891C43.3407 68.4891 27.5199 65.877 27.5199 75.0191C27.5199 83.1163 28.7958 90.9524 28.7958 99.0496C28.7958 105.841 28.0302 112.371 28.0302 119.162C27.775 131.439 28.0302 143.715 28.0302 155.73C28.0302 159.387 27.775 169.574 32.3682 170.619C37.7269 171.664 43.8511 171.925 49.2097 171.925C54.8236 171.925 67.072 170.358 73.1962 172.186C67.3271 179.5 36.1958 200.918 26.7544 205.359C20.8853 208.232 5.83002 212.672 2.0024 216.068V216.851C1.74723 220.769 21.906 247.934 26.7544 247.934C30.8371 247.934 42.0648 241.927 44.1062 240.882C51.5063 236.964 59.1615 232.523 66.3064 228.083C77.5341 221.031 89.7825 201.179 99.7343 197C102.286 208.493 99.224 247.412 102.796 252.375C104.327 254.464 107.134 253.942 109.431 253.942C113.769 253.942 133.162 253.942 136.735 250.285C140.307 242.188 136.224 204.314 142.349 195.694C148.728 195.694 196.956 246.367 216.604 246.367C221.197 246.367 240.08 220.508 240.08 216.068C240.08 212.672 223.239 206.665 220.177 205.359C200.528 197.784 185.728 188.903 172.204 171.925C173.48 171.402 175.011 171.402 176.287 171.402C184.963 171.402 193.639 172.97 202.57 172.97C204.866 172.97 211.501 173.231 213.287 171.664C215.584 169.574 217.115 154.163 217.115 150.506C217.115 136.924 213.797 123.603 213.797 109.759C213.797 97.4824 216.86 85.7283 216.86 73.9743C216.86 68.4891 208.694 69.5339 205.122 69.5339C189.556 69.5339 174.245 71.3623 158.68 71.3623C152.555 71.3623 145.921 72.1459 140.052 70.5787L138.776 68.7503ZM155.362 97.2212C159.19 97.2212 178.583 96.6988 180.37 99.8332C180.37 106.102 177.563 107.408 172.204 107.408C167.611 107.408 139.542 105.58 137.5 102.968C137.5 101.4 138.266 99.8332 139.031 98.5272C142.349 96.6988 151.28 97.2212 155.362 97.2212ZM64.265 104.012C63.7547 98.0048 67.072 97.7436 72.6858 97.7436H94.886C96.6722 97.7436 101.265 98.266 102.031 100.094C102.031 102.968 101.265 107.408 98.2033 108.192C90.8032 110.281 79.5755 110.02 71.9203 110.02C69.6237 110.02 65.7961 110.02 64.5202 107.93L64.265 104.012ZM158.68 144.76C153.321 144.76 139.797 146.588 139.797 138.752V135.618C142.349 131.961 162.762 131.961 167.611 131.961C175.776 131.961 176.032 134.312 177.052 142.148C176.287 144.76 172.459 144.76 170.163 144.76H158.68ZM93.355 133.789C95.9067 133.789 98.4585 133.789 99.9895 136.14L100.245 139.275L99.9895 142.409C98.4585 145.021 95.9067 144.499 93.355 144.499C90.548 144.499 70.8996 143.454 69.1133 142.67C66.8168 141.625 65.5409 138.491 65.0306 136.14C66.0513 133.789 69.1133 133.789 71.4099 133.789H93.355Z" stroke="#3E3E3E" stroke-width="3" mask="url(#path-1-outside-1_5_50)"/>
<path d="M284.481 24.0848C277.081 24.0848 262.791 23.5624 262.791 34.0105V54.3842C262.791 57.2574 264.067 61.4366 267.639 61.4366C274.529 61.4366 281.419 60.1306 288.564 60.1306C321.736 60.1306 355.164 64.0486 388.592 64.0486C406.965 64.0486 425.082 61.6978 443.455 61.6978C456.724 61.6978 470.248 63.0038 483.517 63.0038C487.855 63.0038 488.365 59.0858 488.365 55.6902C488.365 28.0029 491.428 25.652 465.655 25.652C455.958 25.652 446.262 26.4357 436.565 26.4357C431.206 26.4357 425.848 25.1296 420.234 25.1296C415.641 25.1296 399.565 26.4357 396.247 24.6072C395.482 23.5624 395.227 22.5176 395.227 21.4728C395.227 17.5548 396.758 8.15155 394.971 5.27835C392.675 3.97234 390.378 4.23354 387.827 4.23354C382.468 4.23354 358.482 5.01715 356.95 6.32315C356.44 7.36796 356.185 8.41277 356.185 9.45756C356.185 22.2564 362.054 26.1744 345.468 26.1744C332.709 26.1744 319.95 24.0848 307.191 24.0848H284.481ZM289.84 135.618C289.84 159.387 285.502 163.828 310.764 163.828C319.95 163.828 353.378 161.215 356.695 164.611C357.206 165.134 357.716 167.746 357.716 168.529C357.716 175.32 356.95 182.112 356.695 188.903C356.44 194.127 357.461 200.657 356.44 206.142C354.399 216.329 326.585 209.015 321.481 216.068C321.226 216.851 320.971 217.635 320.971 218.419C320.971 222.859 330.412 246.628 333.474 249.502C337.047 252.636 343.426 252.636 347.764 252.636C399.82 252.636 394.971 229.65 395.482 184.462C395.482 181.589 394.716 170.88 397.268 168.268C399.054 166.44 432.482 164.872 439.372 164.872C462.082 164.872 464.889 169.574 464.889 142.409C464.889 130.655 462.082 119.162 462.082 107.669C462.082 100.094 463.613 92.5196 463.613 84.9447C463.613 75.2803 442.179 76.8475 437.331 76.3251C431.717 75.8027 425.592 75.0191 419.979 75.0191C402.882 75.0191 385.53 78.1535 368.433 78.1535C355.93 78.1535 343.681 75.5415 330.923 75.5415C321.226 75.5415 311.529 76.3251 301.833 77.3699C299.281 77.6311 293.412 77.8923 291.881 79.9819C289.84 82.8551 289.84 103.49 289.84 104.274V135.618ZM326.329 127.521C326.329 123.08 326.84 108.453 332.709 108.453C340.109 108.453 347.254 110.804 354.399 110.804C362.309 110.804 370.22 108.453 378.13 108.453C386.04 108.453 394.206 109.236 402.116 109.236C406.965 109.236 412.068 108.453 416.917 108.453C420.489 108.453 425.848 107.669 425.848 112.632C425.848 134.051 419.979 132.222 401.096 132.222C392.165 132.222 383.489 130.916 374.558 130.916C361.799 130.916 348.785 132.222 336.026 132.222C332.964 132.222 326.329 132.222 326.329 127.521ZM462.593 242.71C466.42 242.971 493.469 228.344 495 224.687C493.979 217.635 455.193 172.447 449.579 172.447C444.475 172.447 417.682 187.074 417.682 191.776C417.682 194.127 428.399 202.224 430.696 204.053C440.648 212.15 460.041 241.665 461.572 242.71H462.593ZM328.881 187.336C328.881 180.806 302.853 174.276 297.495 174.276C296.219 174.276 294.943 174.537 293.922 175.059C291.371 176.626 287.798 182.895 286.012 185.768C278.357 198.045 269.17 207.187 260.239 218.157C259.219 219.202 258.453 220.508 258.453 222.075C258.453 227.299 276.06 239.053 281.164 239.053C294.943 239.053 328.881 201.179 328.881 187.336Z" stroke="#3E3E3E" stroke-width="3" mask="url(#path-1-outside-1_5_50)"/>
</svg>
