<svg width="47" height="49" viewBox="0 0 47 49" fill="none" xmlns="http://www.w3.org/2000/svg">
<path d="M12.8912 31.6106C12.9153 31.39 12.9634 31.1448 13.0115 30.9241L13.1558 30.777C13.276 30.7525 13.3963 30.728 13.5165 30.728C14.1178 30.728 14.719 30.826 15.3444 30.826C16.0178 30.826 16.6671 30.6054 17.3405 30.6054C18.5671 30.6054 19.7696 30.8506 21.0202 30.8506C21.4772 30.8506 22.0785 30.9732 22.0785 30.3111C22.0785 27.2218 21.5974 27.1727 18.6874 27.1727C17.557 27.1727 16.4747 27.4915 15.3925 27.4915C14.9355 27.4915 13.6849 27.3689 13.276 27.1727C13.0115 26.7559 13.252 26.0694 13.0596 25.579C12.5545 25.2848 10.7507 25.3583 10.3178 25.3583C10.0773 25.3583 9.62037 25.2848 9.42797 25.4809C9.37987 25.579 9.33177 25.7016 9.33177 25.7997C9.33177 26.2655 9.62037 27.3198 8.92291 27.3198C8.27355 27.3198 7.64824 27.2218 6.99888 27.2218C5.26725 27.2218 2.54956 27.2953 0.866039 27.4424C0.505284 27.467 0.457183 27.8102 0.457183 28.129C0.457183 28.6193 0.457183 30.7034 1.05844 30.7525C1.4192 30.8015 1.804 30.777 2.16476 30.777C2.91032 30.777 3.67993 30.826 4.42549 30.826C5.91661 30.826 7.40774 30.5073 8.92291 30.5073C9.04316 30.5073 9.16341 30.5318 9.28366 30.5563L9.40392 30.7525C9.37987 31.0467 9.35582 31.4145 9.16341 31.6597C8.61026 31.8313 7.79254 31.8313 7.21533 31.8313C6.27737 31.8313 5.36346 31.5861 4.42549 31.5861C3.89638 31.5861 2.40526 31.3409 2.40526 32.1991C2.40526 32.9592 2.52551 33.6948 2.52551 34.4548C2.52551 35.0923 2.45336 35.7053 2.45336 36.3428C2.42931 37.4952 2.45336 38.6476 2.45336 39.7754C2.45336 40.1187 2.42931 41.0749 2.86222 41.173C3.36728 41.2711 3.94449 41.2956 4.44954 41.2956C4.97865 41.2956 6.13307 41.1485 6.71028 41.3201C6.15712 42.0067 3.22297 44.0172 2.33311 44.434C1.77995 44.7037 0.360982 45.1206 0.0002263 45.4393V45.5129C-0.023824 45.8806 1.87615 48.4306 2.33311 48.4306C2.71792 48.4306 3.77613 47.8667 3.96854 47.7686C4.666 47.4008 5.38751 46.984 6.06092 46.5672C7.11913 45.9052 8.27355 44.0417 9.21151 43.6494C9.45202 44.7283 9.16341 48.3816 9.50012 48.8474C9.64442 49.0436 9.90897 48.9945 10.1254 48.9945C10.5343 48.9945 12.3621 48.9945 12.6988 48.6513C13.0355 47.8912 12.6507 44.336 13.2279 43.5268C13.8292 43.5268 18.3747 48.2835 20.2266 48.2835C20.6595 48.2835 22.4392 45.8561 22.4392 45.4393C22.4392 45.1206 20.8519 44.5566 20.5633 44.434C18.7114 43.723 17.3165 42.8893 16.0418 41.2956C16.1621 41.2466 16.3064 41.2466 16.4266 41.2466C17.2443 41.2466 18.062 41.3937 18.9038 41.3937C19.1203 41.3937 19.7456 41.4182 19.9139 41.2711C20.1304 41.0749 20.2747 39.6283 20.2747 39.2851C20.2747 38.0101 19.962 36.7596 19.962 35.4601C19.962 34.3077 20.2506 33.2044 20.2506 32.101C20.2506 31.5861 19.481 31.6842 19.1443 31.6842C17.6772 31.6842 16.2342 31.8558 14.7671 31.8558C14.1899 31.8558 13.5646 31.9294 13.0115 31.7823L12.8912 31.6106ZM14.4545 34.2832C14.8152 34.2832 16.6431 34.2342 16.8114 34.5284C16.8114 35.1168 16.5469 35.2394 16.0418 35.2394C15.6089 35.2394 12.9634 35.0678 12.771 34.8226C12.771 34.6755 12.8431 34.5284 12.9153 34.4058C13.2279 34.2342 14.0697 34.2832 14.4545 34.2832ZM5.86851 34.9207C5.82041 34.3568 6.13307 34.3322 6.66218 34.3322H8.75456C8.92291 34.3322 9.35582 34.3813 9.42797 34.5529C9.42797 34.8226 9.35582 35.2394 9.06721 35.313C8.36975 35.5092 7.31153 35.4846 6.59002 35.4846C6.37357 35.4846 6.01282 35.4846 5.89256 35.2885L5.86851 34.9207ZM14.7671 38.7456C14.2621 38.7456 12.9874 38.9173 12.9874 38.1817V37.8875C13.2279 37.5442 15.152 37.5442 15.6089 37.5442C16.3785 37.5442 16.4026 37.7649 16.4988 38.5005C16.4266 38.7456 16.0659 38.7456 15.8494 38.7456H14.7671ZM8.61026 37.7159C8.85076 37.7159 9.09126 37.7158 9.23556 37.9365L9.25961 38.2307L9.23556 38.525C9.09126 38.7702 8.85076 38.7211 8.61026 38.7211C8.3457 38.7211 6.49382 38.623 6.32547 38.5495C6.10902 38.4514 5.98877 38.1572 5.94066 37.9365C6.03687 37.7158 6.32547 37.7159 6.54192 37.7159H8.61026Z" fill="white"/>
<path d="M26.624 27.4179C25.9265 27.4179 24.5797 27.3689 24.5797 28.3496V30.2621C24.5797 30.5318 24.6999 30.9241 25.0366 30.9241C25.686 30.9241 26.3354 30.8015 27.0088 30.8015C30.1353 30.8015 33.2859 31.1693 36.4365 31.1693C38.1681 31.1693 39.8757 30.9486 41.6073 30.9486C42.858 30.9486 44.1326 31.0712 45.3833 31.0712C45.7921 31.0712 45.8402 30.7034 45.8402 30.3847C45.8402 27.7857 46.1288 27.565 43.6997 27.565C42.7858 27.565 41.8719 27.6386 40.958 27.6386C40.4529 27.6386 39.9479 27.516 39.4188 27.516C38.9859 27.516 37.4707 27.6386 37.158 27.467C37.0859 27.3689 37.0618 27.2708 37.0618 27.1727C37.0618 26.8049 37.2061 25.9223 37.0378 25.6526C36.8213 25.53 36.6049 25.5545 36.3644 25.5545C35.8593 25.5545 33.5986 25.628 33.4543 25.7506C33.4062 25.8487 33.3821 25.9468 33.3821 26.0449C33.3821 27.2463 33.9353 27.6141 32.372 27.6141C31.1695 27.6141 29.967 27.4179 28.7645 27.4179H26.624ZM27.129 37.8875C27.129 40.1187 26.7202 40.5355 29.1012 40.5355C29.967 40.5355 33.1176 40.2903 33.4302 40.6091C33.4783 40.6581 33.5264 40.9033 33.5264 40.9769C33.5264 41.6144 33.4543 42.2518 33.4302 42.8893C33.4062 43.3797 33.5024 43.9927 33.4062 44.5076C33.2138 45.4638 30.5923 44.7773 30.1113 45.4393C30.0872 45.5129 30.0632 45.5864 30.0632 45.66C30.0632 46.0768 30.953 48.308 31.2416 48.5777C31.5783 48.8719 32.1796 48.8719 32.5885 48.8719C37.4947 48.8719 37.0378 46.7143 37.0859 42.4725C37.0859 42.2028 37.0137 41.1975 37.2542 40.9523C37.4226 40.7807 40.5732 40.6336 41.2225 40.6336C43.363 40.6336 43.6276 41.0749 43.6276 38.525C43.6276 37.4216 43.363 36.3428 43.363 35.264C43.363 34.5529 43.5073 33.8419 43.5073 33.1308C43.5073 32.2236 41.4871 32.3707 41.0301 32.3217C40.501 32.2727 39.9238 32.1991 39.3947 32.1991C37.7833 32.1991 36.1479 32.4933 34.5365 32.4933C33.3581 32.4933 32.2037 32.2481 31.0011 32.2481C30.0872 32.2481 29.1733 32.3217 28.2594 32.4198C28.0189 32.4443 27.4657 32.4688 27.3214 32.665C27.129 32.9347 27.129 34.8717 27.129 34.9452V37.8875ZM30.5682 37.1274C30.5682 36.7106 30.6163 35.3375 31.1695 35.3375C31.867 35.3375 32.5404 35.5582 33.2138 35.5582C33.9593 35.5582 34.7049 35.3375 35.4505 35.3375C36.196 35.3375 36.9656 35.4111 37.7112 35.4111C38.1681 35.4111 38.6492 35.3375 39.1061 35.3375C39.4428 35.3375 39.9479 35.264 39.9479 35.7298C39.9479 37.7404 39.3947 37.5687 37.615 37.5687C36.7732 37.5687 35.9555 37.4461 35.1138 37.4461C33.9112 37.4461 32.6847 37.5687 31.4821 37.5687C31.1935 37.5687 30.5682 37.5687 30.5682 37.1274ZM43.4111 47.9402C43.7719 47.9647 46.3212 46.5917 46.4655 46.2484C46.3693 45.5864 42.7137 41.3446 42.1846 41.3446C41.7035 41.3446 39.1783 42.7177 39.1783 43.159C39.1783 43.3797 40.1884 44.1398 40.4048 44.3114C41.3428 45.0715 43.1706 47.8422 43.3149 47.9402H43.4111ZM30.8087 42.7422C30.8087 42.1293 28.3556 41.5163 27.8505 41.5163C27.7303 41.5163 27.61 41.5408 27.5138 41.5898C27.2733 41.7369 26.9366 42.3254 26.7683 42.5951C26.0468 43.7475 25.181 44.6057 24.3392 45.6355C24.243 45.7335 24.1708 45.8561 24.1708 46.0032C24.1708 46.4936 25.8303 47.597 26.3113 47.597C27.61 47.597 30.8087 44.0417 30.8087 42.7422Z" fill="white"/>
<path d="M7.21793 0.920213C6.61843 0.920213 6.04292 0.726484 5.4674 0.726484C5.3475 0.726484 5.2276 0.7507 5.13168 0.799131C4.79596 1.13816 4.58015 3.4629 4.58015 3.97144C4.58015 4.28625 4.93984 4.31047 5.17964 4.31047C6.85823 4.31047 8.39294 4.3589 10.0715 4.47998C10.2154 4.47998 12.5175 4.47998 12.8772 4.77057C13.2129 5.03695 13.1649 6.65943 13.2608 7.19218C13.4047 8.06396 13.8364 8.86309 13.9802 9.73487C14.1241 10.6551 14.3399 13.6821 14.5078 14.1906C14.6277 14.5539 15.5389 16.1764 15.8027 16.5638C16.4022 17.4598 17.6731 21.2617 19.0879 21.625C19.6155 21.5039 20.7665 20.3173 21.438 19.9783C21.7977 19.7846 22.637 19.4455 22.7808 19.0823C22.7089 18.5495 21.5818 17.6778 21.2941 17.1934C18.8242 13.1251 18.7522 13.1251 17.5293 8.81466C17.0976 7.26483 16.7139 1.25924 16.2823 0.847564C16.1864 0.7507 16.0185 0.726484 15.8746 0.726484C15.2751 0.726484 14.6996 0.799131 14.1241 0.799131C12.9731 0.799131 11.846 0.484323 10.671 0.484323C9.20825 0.484323 8.17712 0.920213 7.21793 0.920213ZM7.74548 13.8758C8.0812 13.222 8.34498 12.3986 8.51284 11.6722C8.84855 10.2918 9.11233 8.30612 9.11233 6.99845C9.11233 6.87737 9.08835 6.75629 9.04039 6.63521C8.94447 6.56256 6.0669 6.22354 5.65924 6.22354C5.53934 6.22354 5.39546 6.22354 5.29954 6.3204C5.17964 6.44148 4.43627 10.5824 4.36433 11.091C4.24443 11.8417 4.34035 12.665 4.10055 13.3915C3.76483 14.3844 1.82247 17.5082 1.10307 18.3316C0.839294 18.6222 0.0719395 19.3002 0 19.6393C0.0479597 19.8088 2.78166 21.8429 2.90156 21.8429C3.90871 21.8429 7.40977 14.5781 7.52966 14.3117L7.74548 13.8758Z" fill="white"/>
<path d="M35.2024 18.5737C35.2024 18.719 35.9697 19.8814 36.0896 20.0751C36.3294 20.511 36.4254 21.6008 36.833 21.8429C37.0728 21.9882 37.8641 21.964 38.1519 21.964C39.1351 21.964 39.9744 21.8914 40.9336 21.7461C41.3412 21.6734 41.7968 21.6492 42.1565 21.4555C43.2596 20.8501 43.4514 19.2518 43.5713 18.1621C43.6673 17.2176 43.8591 16.1279 43.8591 15.1593C43.8591 14.2875 43.7152 13.4642 43.7152 12.5924C43.7152 11.5026 43.931 10.4371 43.931 9.34741C43.931 6.99845 43.6673 4.62528 43.6673 2.27631C43.6673 1.69513 44.027 0.048433 43.2356 0.048433C41.2693 0.048433 39.231 0.43589 37.2646 0.43589C36.3774 0.43589 35.5861 0 34.7228 0C33.9075 0 33.1161 0.266378 32.3008 0.266378C31.6294 0.266378 28.2722 0.0968646 27.8406 0.532755C27.6487 0.726484 27.5528 2.59112 27.5528 2.80907C27.5049 3.82614 27.5528 4.86744 27.4809 5.88451C27.4329 6.68364 27.2651 7.45856 27.2651 8.25769C27.2651 9.20212 27.5288 10.1223 27.5288 11.0668C27.5288 13.0767 27.361 13.222 26.6656 15.1108C26.4737 15.5952 26.138 16.9513 25.7783 17.4598C25.4905 17.8715 24.0757 19.1065 24.0757 19.4213C24.0757 19.494 24.0997 19.5666 24.1477 19.615C24.6752 20.172 25.2747 20.5353 25.7783 21.1649C25.8742 21.3102 25.9941 21.4555 26.138 21.5523C26.2099 21.6008 26.2819 21.625 26.3538 21.625C26.5936 21.625 27.1931 20.8743 27.361 20.6805C27.7686 20.172 29.5911 18.0168 29.8789 16.9997C29.9988 16.5396 30.1187 16.0068 30.2865 15.5467C30.4064 15.2561 30.5743 15.0624 30.886 15.0624C31.4855 15.0624 32.085 15.1351 32.6845 15.1351C33.9314 15.1351 35.1784 14.8203 36.4493 14.8203C37.0248 14.8203 39.9504 14.9171 39.9504 15.7405C39.9504 16.1521 39.7825 17.4356 39.5427 17.7262C39.0871 18.2589 35.8259 18.0652 35.2264 18.4769L35.2024 18.5737ZM32.2529 3.58398C33.9554 3.58398 35.682 3.63242 37.4085 3.51134C38.032 3.4629 38.6555 3.31761 39.3029 3.31761C40.0223 3.31761 39.9504 4.52841 39.9504 5.06117C39.9504 5.35176 39.8545 5.54549 39.5427 5.59392C38.3917 5.81186 36.9289 5.93294 35.7539 5.93294C34.7468 5.93294 33.7396 5.64235 32.7325 5.64235C32.3008 5.64235 30.8141 5.88451 30.8141 5.23068C30.8141 3.89879 30.91 3.58398 32.2529 3.58398ZM39.9744 11.2363C39.9744 11.5511 39.7825 11.6964 39.4948 11.6964C38.2238 11.6964 36.9289 11.5269 35.658 11.5269C35.1304 11.5269 31.1258 11.6964 30.8141 11.4058C30.7182 11.3331 30.7181 11.1878 30.7181 11.0668C30.7181 10.6793 30.7661 10.195 30.886 9.83174C31.1258 9.1779 34.9626 9.15369 35.7299 9.15369C36.4493 9.15369 37.1687 9.22633 37.8641 9.27477C38.1759 9.29898 39.9744 9.12947 39.9744 9.88017V11.2363Z" fill="white"/>
</svg>
