<svg width="47" height="49" viewBox="0 0 47 49" fill="none" xmlns="http://www.w3.org/2000/svg">
<path d="M12.8912 31.6106C12.9153 31.3899 12.9634 31.1447 13.0115 30.924L13.1558 30.7769C13.276 30.7524 13.3963 30.7279 13.5165 30.7279C14.1178 30.7279 14.719 30.826 15.3444 30.826C16.0178 30.826 16.6671 30.6053 17.3405 30.6053C18.5671 30.6053 19.7696 30.8505 21.0202 30.8505C21.4772 30.8505 22.0785 30.9731 22.0785 30.3111C22.0785 27.2217 21.5974 27.1726 18.6874 27.1726C17.557 27.1726 16.4747 27.4914 15.3925 27.4914C14.9355 27.4914 13.6849 27.3688 13.276 27.1726C13.0115 26.7558 13.252 26.0693 13.0596 25.5789C12.5545 25.2847 10.7507 25.3582 10.3178 25.3582C10.0773 25.3582 9.62037 25.2847 9.42797 25.4808C9.37987 25.5789 9.33177 25.7015 9.33177 25.7996C9.33177 26.2654 9.62037 27.3197 8.92291 27.3197C8.27355 27.3197 7.64824 27.2217 6.99888 27.2217C5.26725 27.2217 2.54956 27.2952 0.866039 27.4423C0.505284 27.4669 0.457183 27.8101 0.457183 28.1289C0.457183 28.6192 0.457183 30.7034 1.05844 30.7524C1.4192 30.8014 1.804 30.7769 2.16476 30.7769C2.91032 30.7769 3.67993 30.826 4.42549 30.826C5.91661 30.826 7.40774 30.5072 8.92291 30.5072C9.04316 30.5072 9.16341 30.5317 9.28366 30.5562L9.40392 30.7524C9.37987 31.0466 9.35582 31.4144 9.16341 31.6596C8.61026 31.8312 7.79254 31.8312 7.21533 31.8312C6.27737 31.8312 5.36346 31.586 4.42549 31.586C3.89638 31.586 2.40526 31.3408 2.40526 32.199C2.40526 32.9591 2.52551 33.6947 2.52551 34.4547C2.52551 35.0922 2.45336 35.7052 2.45336 36.3427C2.42931 37.4951 2.45336 38.6475 2.45336 39.7753C2.45336 40.1186 2.42931 41.0748 2.86222 41.1729C3.36728 41.271 3.94449 41.2955 4.44954 41.2955C4.97865 41.2955 6.13307 41.1484 6.71028 41.32C6.15712 42.0066 3.22297 44.0171 2.33311 44.4339C1.77995 44.7036 0.360982 45.1205 0.0002263 45.4392V45.5128C-0.023824 45.8806 1.87615 48.4305 2.33311 48.4305C2.71792 48.4305 3.77613 47.8666 3.96854 47.7685C4.666 47.4007 5.38751 46.9839 6.06092 46.5671C7.11913 45.9051 8.27355 44.0416 9.21151 43.6493C9.45202 44.7282 9.16341 48.3815 9.50012 48.8473C9.64442 49.0435 9.90897 48.9944 10.1254 48.9944C10.5343 48.9944 12.3621 48.9944 12.6988 48.6512C13.0355 47.8911 12.6507 44.3359 13.2279 43.5267C13.8292 43.5267 18.3747 48.2834 20.2266 48.2834C20.6595 48.2834 22.4392 45.856 22.4392 45.4392C22.4392 45.1205 20.8519 44.5565 20.5633 44.4339C18.7114 43.7229 17.3165 42.8892 16.0418 41.2955C16.1621 41.2465 16.3064 41.2465 16.4266 41.2465C17.2443 41.2465 18.062 41.3936 18.9038 41.3936C19.1203 41.3936 19.7456 41.4181 19.9139 41.271C20.1304 41.0748 20.2747 39.6282 20.2747 39.285C20.2747 38.01 19.962 36.7595 19.962 35.46C19.962 34.3076 20.2506 33.2043 20.2506 32.1009C20.2506 31.586 19.481 31.6841 19.1443 31.6841C17.6772 31.6841 16.2342 31.8557 14.7671 31.8557C14.1899 31.8557 13.5646 31.9293 13.0115 31.7822L12.8912 31.6106ZM14.4545 34.2831C14.8152 34.2831 16.6431 34.2341 16.8114 34.5283C16.8114 35.1168 16.5469 35.2394 16.0418 35.2394C15.6089 35.2394 12.9634 35.0677 12.771 34.8225C12.771 34.6754 12.8431 34.5283 12.9153 34.4057C13.2279 34.2341 14.0697 34.2831 14.4545 34.2831ZM5.86851 34.9206C5.82041 34.3567 6.13307 34.3322 6.66218 34.3322H8.75456C8.92291 34.3322 9.35582 34.3812 9.42797 34.5528C9.42797 34.8225 9.35582 35.2394 9.06721 35.3129C8.36975 35.5091 7.31153 35.4845 6.59002 35.4845C6.37357 35.4845 6.01282 35.4845 5.89256 35.2884L5.86851 34.9206ZM14.7671 38.7456C14.2621 38.7456 12.9874 38.9172 12.9874 38.1816V37.8874C13.2279 37.5441 15.152 37.5441 15.6089 37.5441C16.3785 37.5441 16.4026 37.7648 16.4988 38.5004C16.4266 38.7456 16.0659 38.7456 15.8494 38.7456H14.7671ZM8.61026 37.7158C8.85076 37.7158 9.09126 37.7158 9.23556 37.9364L9.25961 38.2307L9.23556 38.5249C9.09126 38.7701 8.85076 38.721 8.61026 38.721C8.3457 38.721 6.49382 38.623 6.32547 38.5494C6.10902 38.4513 5.98877 38.1571 5.94066 37.9364C6.03687 37.7158 6.32547 37.7158 6.54192 37.7158H8.61026Z" fill="#272727"/>
<path d="M26.624 27.4178C25.9265 27.4178 24.5797 27.3688 24.5797 28.3495V30.262C24.5797 30.5317 24.6999 30.924 25.0366 30.924C25.686 30.924 26.3354 30.8014 27.0088 30.8014C30.1353 30.8014 33.2859 31.1692 36.4365 31.1692C38.1681 31.1692 39.8757 30.9485 41.6073 30.9485C42.858 30.9485 44.1326 31.0711 45.3833 31.0711C45.7921 31.0711 45.8402 30.7034 45.8402 30.3846C45.8402 27.7856 46.1288 27.5649 43.6997 27.5649C42.7858 27.5649 41.8719 27.6385 40.958 27.6385C40.4529 27.6385 39.9479 27.5159 39.4188 27.5159C38.9859 27.5159 37.4707 27.6385 37.158 27.4669C37.0859 27.3688 37.0618 27.2707 37.0618 27.1726C37.0618 26.8049 37.2061 25.9222 37.0378 25.6525C36.8213 25.5299 36.6049 25.5544 36.3644 25.5544C35.8593 25.5544 33.5986 25.6279 33.4543 25.7505C33.4062 25.8486 33.3821 25.9467 33.3821 26.0448C33.3821 27.2462 33.9353 27.614 32.372 27.614C31.1695 27.614 29.967 27.4178 28.7645 27.4178H26.624ZM27.129 37.8874C27.129 40.1186 26.7202 40.5354 29.1012 40.5354C29.967 40.5354 33.1176 40.2902 33.4302 40.609C33.4783 40.658 33.5264 40.9032 33.5264 40.9768C33.5264 41.6143 33.4543 42.2518 33.4302 42.8892C33.4062 43.3796 33.5024 43.9926 33.4062 44.5075C33.2138 45.4637 30.5923 44.7772 30.1113 45.4392C30.0872 45.5128 30.0632 45.5863 30.0632 45.6599C30.0632 46.0767 30.953 48.3079 31.2416 48.5776C31.5783 48.8719 32.1796 48.8719 32.5885 48.8719C37.4947 48.8719 37.0378 46.7142 37.0859 42.4724C37.0859 42.2027 37.0137 41.1974 37.2542 40.9523C37.4226 40.7806 40.5732 40.6335 41.2225 40.6335C43.363 40.6335 43.6276 41.0748 43.6276 38.5249C43.6276 37.4215 43.363 36.3427 43.363 35.2639C43.363 34.5528 43.5073 33.8418 43.5073 33.1307C43.5073 32.2235 41.4871 32.3706 41.0301 32.3216C40.501 32.2726 39.9238 32.199 39.3947 32.199C37.7833 32.199 36.1479 32.4932 34.5365 32.4932C33.3581 32.4932 32.2037 32.248 31.0011 32.248C30.0872 32.248 29.1733 32.3216 28.2594 32.4197C28.0189 32.4442 27.4657 32.4687 27.3214 32.6649C27.129 32.9346 27.129 34.8716 27.129 34.9451V37.8874ZM30.5682 37.1273C30.5682 36.7105 30.6163 35.3374 31.1695 35.3374C31.867 35.3374 32.5404 35.5581 33.2138 35.5581C33.9593 35.5581 34.7049 35.3374 35.4505 35.3374C36.196 35.3374 36.9656 35.411 37.7112 35.411C38.1681 35.411 38.6492 35.3374 39.1061 35.3374C39.4428 35.3374 39.9479 35.2639 39.9479 35.7297C39.9479 37.7403 39.3947 37.5686 37.615 37.5686C36.7732 37.5686 35.9555 37.4461 35.1138 37.4461C33.9112 37.4461 32.6847 37.5686 31.4821 37.5686C31.1935 37.5686 30.5682 37.5686 30.5682 37.1273ZM43.4111 47.9401C43.7719 47.9647 46.3212 46.5916 46.4655 46.2483C46.3693 45.5863 42.7137 41.3446 42.1846 41.3446C41.7035 41.3446 39.1783 42.7176 39.1783 43.159C39.1783 43.3796 40.1884 44.1397 40.4048 44.3113C41.3428 45.0714 43.1706 47.8421 43.3149 47.9401H43.4111ZM30.8087 42.7421C30.8087 42.1292 28.3556 41.5162 27.8505 41.5162C27.7303 41.5162 27.61 41.5407 27.5138 41.5897C27.2733 41.7369 26.9366 42.3253 26.7683 42.595C26.0468 43.7474 25.181 44.6056 24.3392 45.6354C24.243 45.7334 24.1708 45.856 24.1708 46.0031C24.1708 46.4935 25.8303 47.5969 26.3113 47.5969C27.61 47.5969 30.8087 44.0416 30.8087 42.7421Z" fill="#272727"/>
<path d="M7.21793 0.920213C6.61843 0.920213 6.04292 0.726484 5.4674 0.726484C5.3475 0.726484 5.2276 0.7507 5.13168 0.799131C4.79596 1.13816 4.58015 3.4629 4.58015 3.97144C4.58015 4.28625 4.93984 4.31047 5.17964 4.31047C6.85823 4.31047 8.39294 4.3589 10.0715 4.47998C10.2154 4.47998 12.5175 4.47998 12.8772 4.77057C13.2129 5.03695 13.1649 6.65943 13.2608 7.19218C13.4047 8.06396 13.8364 8.86309 13.9802 9.73487C14.1241 10.6551 14.3399 13.6821 14.5078 14.1906C14.6277 14.5539 15.5389 16.1764 15.8027 16.5638C16.4022 17.4598 17.6731 21.2617 19.0879 21.625C19.6155 21.5039 20.7665 20.3173 21.438 19.9783C21.7977 19.7846 22.637 19.4455 22.7808 19.0823C22.7089 18.5495 21.5818 17.6778 21.2941 17.1934C18.8242 13.1251 18.7522 13.1251 17.5293 8.81466C17.0976 7.26483 16.7139 1.25924 16.2823 0.847564C16.1864 0.7507 16.0185 0.726484 15.8746 0.726484C15.2751 0.726484 14.6996 0.799131 14.1241 0.799131C12.9731 0.799131 11.846 0.484323 10.671 0.484323C9.20825 0.484323 8.17712 0.920213 7.21793 0.920213ZM7.74548 13.8758C8.0812 13.222 8.34498 12.3986 8.51284 11.6722C8.84855 10.2918 9.11233 8.30612 9.11233 6.99845C9.11233 6.87737 9.08835 6.75629 9.04039 6.63521C8.94447 6.56256 6.0669 6.22354 5.65924 6.22354C5.53934 6.22354 5.39546 6.22354 5.29954 6.3204C5.17964 6.44148 4.43627 10.5824 4.36433 11.091C4.24443 11.8417 4.34035 12.665 4.10055 13.3915C3.76483 14.3844 1.82247 17.5082 1.10307 18.3316C0.839294 18.6222 0.0719395 19.3002 0 19.6393C0.0479597 19.8088 2.78166 21.8429 2.90156 21.8429C3.90871 21.8429 7.40977 14.5781 7.52966 14.3117L7.74548 13.8758Z" fill="#272727"/>
<path d="M35.2024 18.5737C35.2024 18.719 35.9697 19.8814 36.0896 20.0751C36.3294 20.511 36.4254 21.6008 36.833 21.8429C37.0728 21.9882 37.8641 21.964 38.1519 21.964C39.1351 21.964 39.9744 21.8914 40.9336 21.7461C41.3412 21.6734 41.7968 21.6492 42.1565 21.4555C43.2596 20.8501 43.4514 19.2518 43.5713 18.1621C43.6673 17.2176 43.8591 16.1279 43.8591 15.1593C43.8591 14.2875 43.7152 13.4642 43.7152 12.5924C43.7152 11.5026 43.931 10.4371 43.931 9.34741C43.931 6.99845 43.6673 4.62528 43.6673 2.27631C43.6673 1.69513 44.027 0.048433 43.2356 0.048433C41.2693 0.048433 39.231 0.43589 37.2646 0.43589C36.3774 0.43589 35.5861 0 34.7228 0C33.9075 0 33.1161 0.266378 32.3008 0.266378C31.6294 0.266378 28.2722 0.0968646 27.8406 0.532755C27.6487 0.726484 27.5528 2.59112 27.5528 2.80907C27.5049 3.82614 27.5528 4.86744 27.4809 5.88451C27.4329 6.68364 27.2651 7.45856 27.2651 8.25769C27.2651 9.20212 27.5288 10.1223 27.5288 11.0668C27.5288 13.0767 27.361 13.222 26.6656 15.1108C26.4737 15.5952 26.138 16.9513 25.7783 17.4598C25.4905 17.8715 24.0757 19.1065 24.0757 19.4213C24.0757 19.494 24.0997 19.5666 24.1477 19.615C24.6752 20.172 25.2747 20.5353 25.7783 21.1649C25.8742 21.3102 25.9941 21.4555 26.138 21.5523C26.2099 21.6008 26.2819 21.625 26.3538 21.625C26.5936 21.625 27.1931 20.8743 27.361 20.6805C27.7686 20.172 29.5911 18.0168 29.8789 16.9997C29.9988 16.5396 30.1187 16.0068 30.2865 15.5467C30.4064 15.2561 30.5743 15.0624 30.886 15.0624C31.4855 15.0624 32.085 15.1351 32.6845 15.1351C33.9314 15.1351 35.1784 14.8203 36.4493 14.8203C37.0248 14.8203 39.9504 14.9171 39.9504 15.7405C39.9504 16.1521 39.7825 17.4356 39.5427 17.7262C39.0871 18.2589 35.8259 18.0652 35.2264 18.4769L35.2024 18.5737ZM32.2529 3.58398C33.9554 3.58398 35.682 3.63242 37.4085 3.51134C38.032 3.4629 38.6555 3.31761 39.3029 3.31761C40.0223 3.31761 39.9504 4.52841 39.9504 5.06117C39.9504 5.35176 39.8545 5.54549 39.5427 5.59392C38.3917 5.81186 36.9289 5.93294 35.7539 5.93294C34.7468 5.93294 33.7396 5.64235 32.7325 5.64235C32.3008 5.64235 30.8141 5.88451 30.8141 5.23068C30.8141 3.89879 30.91 3.58398 32.2529 3.58398ZM39.9744 11.2363C39.9744 11.5511 39.7825 11.6964 39.4948 11.6964C38.2238 11.6964 36.9289 11.5269 35.658 11.5269C35.1304 11.5269 31.1258 11.6964 30.8141 11.4058C30.7182 11.3331 30.7181 11.1878 30.7181 11.0668C30.7181 10.6793 30.7661 10.195 30.886 9.83174C31.1258 9.1779 34.9626 9.15369 35.7299 9.15369C36.4493 9.15369 37.1687 9.22633 37.8641 9.27477C38.1759 9.29898 39.9744 9.12947 39.9744 9.88017V11.2363Z" fill="#272727"/>
</svg>
